<svg width="35" height="34" viewBox="0 0 35 34" fill="none" xmlns="http://www.w3.org/2000/svg">
<path d="M17.501 2.12861C17.501 2.12861 26.2689 1.73655 30.9175 10.5182H16.7549C16.7549 10.5182 14.0821 10.4324 11.799 13.6632C11.1432 15.0193 10.4382 16.4162 11.2293 19.1692C10.0897 17.2454 5.17896 8.72516 5.17896 8.72516C5.17896 8.72516 8.64271 2.47578 17.5008 2.12861H17.501Z" fill="#EF3F36"/>
<path d="M30.4623 24.4218C30.4623 24.4218 26.4164 32.1864 16.4639 31.8024C17.6936 29.6825 23.5471 19.5816 23.5471 19.5816C23.5471 19.5816 24.9613 17.3188 23.2929 13.7327C22.4443 12.4869 21.5794 11.1839 18.7921 10.4895C21.0344 10.4692 30.8928 10.4895 30.8928 10.4895C30.8928 10.4895 34.5859 16.6041 30.4623 24.4218Z" fill="#FCD900"/>
<path d="M4.6007 24.4832C4.6007 24.4832 -0.125621 17.1106 5.18682 8.71289C6.41249 10.8328 12.266 20.9338 12.266 20.9338C12.266 20.9338 13.5286 23.2865 17.476 23.6376C18.9805 23.5274 20.5463 23.4334 22.5468 21.379C21.4439 23.3232 16.4962 31.819 16.4962 31.819C16.4962 31.819 9.33098 31.9497 4.60058 24.4832H4.6007Z" fill="#61BC5B"/>
<path d="M16.4597 31.8764L18.4519 23.5931C18.4519 23.5931 20.6408 23.4214 22.4773 21.416C21.3377 23.4134 16.4597 31.8764 16.4597 31.8764V31.8764Z" fill="#5AB055"/>
<path d="M10.8274 17.0942C10.8274 13.4427 13.7993 10.4814 17.4639 10.4814C21.1284 10.4814 24.1003 13.4427 24.1003 17.0942C24.1003 20.7457 21.1284 23.7069 17.4639 23.7069C13.7993 23.7028 10.8274 20.7457 10.8274 17.0942V17.0942Z" fill="white"/>
<path d="M11.9382 17.0938C11.9382 14.055 14.4101 11.5879 17.464 11.5879C20.5137 11.5879 22.9896 14.0509 22.9896 17.0938C22.9896 20.1327 20.5179 22.5998 17.464 22.5998C14.4141 22.5998 11.9382 20.1327 11.9382 17.0938V17.0938Z" fill="url(#paint0_linear_20_4081)"/>
<path d="M30.8886 10.4937L22.6863 12.8914C22.6863 12.8914 21.4484 11.0818 18.7881 10.4937C21.0959 10.4815 30.8886 10.4937 30.8886 10.4937V10.4937Z" fill="#EACA05"/>
<path d="M11.0695 18.8675C9.9175 16.8783 5.17896 8.72559 5.17896 8.72559L11.2539 14.7135C11.2539 14.7135 10.6307 15.992 10.8645 17.8218L11.0694 18.8675H11.0695Z" fill="#DF3A32"/>
<defs>
<linearGradient id="paint0_linear_20_4081" x1="17.4637" y1="11.6656" x2="17.4637" y2="22.2683" gradientUnits="userSpaceOnUse">
<stop stop-color="#86BBE5"/>
<stop offset="1" stop-color="#1072BA"/>
</linearGradient>
</defs>
</svg>
