<svg width="105" height="28" viewBox="0 0 105 28" fill="none" xmlns="http://www.w3.org/2000/svg">
<path d="M21.4857 18.8821C9.25627 23.8426 3.17307 14.2153 5.25304 10.4004C3.22095 13.9971 3.90716 20.3426 9.28651 24.6086C14.1407 28.4582 23.5836 28.3588 30.0322 26.3243C30.9601 26.0316 31.1522 24.8552 30.4172 24.2176C28.5187 22.5708 26.278 20.6292 24.6386 19.2754C23.7602 18.55 22.5414 18.4538 21.4857 18.8821Z" fill="white"/>
<path d="M10.8417 10.757C23.0711 5.79652 29.1542 15.4239 27.0744 19.2387C29.1063 15.642 28.4203 9.29649 23.0409 5.03047C18.1867 1.18091 8.74381 1.28032 2.29524 3.31482C1.36734 3.60757 1.17516 4.78396 1.91016 5.42152C3.80869 7.06831 6.04942 9.00993 7.68879 10.3638C8.56717 11.0891 9.78597 11.1853 10.8417 10.757Z" fill="white"/>
<path d="M38.2673 21.8398V5.54297H44.6986C45.9237 5.54297 46.9809 5.7617 47.8705 6.19921C48.7601 6.62942 49.4455 7.24557 49.9268 8.04768C50.4151 8.8424 50.6596 9.79032 50.6596 10.8914C50.6596 11.9851 50.4151 12.933 49.9268 13.7351C49.4382 14.5299 48.7418 15.1461 47.8377 15.5836C46.9409 16.0211 45.8797 16.2398 44.6547 16.2398H40.1377V13.418H44.4797C45.0778 13.418 45.5918 13.3158 46.0219 13.1117C46.4523 12.9002 46.7841 12.605 47.0173 12.2258C47.2505 11.8466 47.3673 11.4018 47.3673 10.8914C47.3673 10.3664 47.2505 9.918 47.0173 9.54608C46.7841 9.17424 46.4523 8.88616 46.0219 8.682C45.5918 8.47056 45.0778 8.3648 44.4797 8.3648H41.636V21.8398H38.2673ZM56.6258 22.0805C55.809 22.0805 55.0945 21.9054 54.4819 21.5554C53.8768 21.1982 53.4064 20.6805 53.0709 20.0023C52.7355 19.317 52.5677 18.4894 52.5677 17.5195V10.2898H55.7945V16.9289C55.7945 17.7018 55.9804 18.2924 56.3522 18.7008C56.7241 19.1018 57.2454 19.3023 57.9163 19.3023C58.3613 19.3023 58.7513 19.2112 59.0868 19.0289C59.4295 18.8466 59.6954 18.5622 59.885 18.1758C60.0818 17.7894 60.1804 17.3008 60.1804 16.7102V10.2898H63.3959V21.8398H60.235V18.832H60.7819C60.4173 19.8529 59.8959 20.6513 59.2177 21.2274C58.5472 21.7961 57.6831 22.0805 56.6258 22.0805ZM69.1435 5.54297V21.8398H65.9168V5.54297H69.1435ZM76.4549 22.1242C75.4561 22.1242 74.5665 21.9711 73.7862 21.6648C73.0061 21.3513 72.3825 20.9029 71.9158 20.3195C71.4493 19.7362 71.1793 19.0326 71.1065 18.2086H74.2784C74.3366 18.7117 74.5481 19.1054 74.9129 19.3898C75.2774 19.6742 75.773 19.8164 76.4002 19.8164C76.9981 19.8164 77.4648 19.7034 77.8002 19.4774C78.1429 19.2513 78.3143 18.9596 78.3143 18.6023C78.3143 18.2961 78.183 18.0482 77.9206 17.8586C77.6653 17.669 77.3007 17.5305 76.8267 17.443L74.8034 17.0492C73.6806 16.8305 72.8275 16.4367 72.244 15.868C71.6607 15.2992 71.3689 14.5701 71.3689 13.6805C71.3689 12.9513 71.5657 12.3133 71.9597 11.7664C72.3607 11.2195 72.9257 10.7966 73.6549 10.4977C74.3916 10.1987 75.2629 10.0492 76.2689 10.0492C77.268 10.0492 78.1393 10.2096 78.883 10.5305C79.6267 10.844 80.2066 11.2924 80.6218 11.8758C81.045 12.4591 81.2674 13.1518 81.289 13.9539H78.3034C78.2961 13.4872 78.1138 13.1008 77.7565 12.7946C77.3993 12.4883 76.9325 12.3351 76.3565 12.3351C75.8025 12.3351 75.3685 12.4554 75.0549 12.6961C74.7416 12.9294 74.5847 13.2174 74.5847 13.5602C74.5847 13.8591 74.7085 14.1034 74.9565 14.293C75.2044 14.4826 75.5471 14.6247 75.9847 14.7195L78.1721 15.1461C79.3389 15.3721 80.1957 15.744 80.7426 16.2617C81.2962 16.7721 81.5738 17.4539 81.5738 18.307C81.5738 19.0726 81.3546 19.7434 80.9178 20.3195C80.4874 20.8883 79.8857 21.333 79.1129 21.6539C78.3471 21.9674 77.4612 22.1242 76.4549 22.1242ZM88.8962 22.1023C87.737 22.1023 86.7162 21.8508 85.8338 21.3477C84.9514 20.8446 84.2626 20.1409 83.7666 19.2367C83.2778 18.3326 83.0338 17.2789 83.0338 16.0758C83.0338 14.8654 83.2778 13.8081 83.7666 12.9039C84.2626 11.9998 84.9514 11.2961 85.8338 10.793C86.7162 10.2826 87.737 10.0274 88.8962 10.0274C90.0698 10.0274 91.0946 10.2826 91.9698 10.793C92.8522 11.2961 93.537 11.9998 94.0258 12.9039C94.5218 13.8081 94.7698 14.8654 94.7698 16.0758C94.7698 17.2789 94.5218 18.3326 94.0258 19.2367C93.537 20.1409 92.8522 20.8446 91.9698 21.3477C91.0946 21.8508 90.0698 22.1023 88.8962 22.1023ZM88.8962 19.4883C89.421 19.4883 89.8802 19.3534 90.2746 19.0836C90.6682 18.8065 90.9746 18.4127 91.193 17.9023C91.4122 17.3919 91.521 16.783 91.521 16.0758C91.521 15.3539 91.4122 14.7378 91.193 14.2274C90.9746 13.717 90.6682 13.3268 90.2746 13.057C89.8802 12.7799 89.421 12.6414 88.8962 12.6414C88.3786 12.6414 87.9226 12.7799 87.529 13.057C87.1354 13.3268 86.829 13.717 86.6098 14.2274C86.3914 14.7378 86.2818 15.3539 86.2818 16.0758C86.2818 16.7903 86.3914 17.4029 86.6098 17.9133C86.829 18.4164 87.1354 18.8065 87.529 19.0836C87.9226 19.3534 88.3786 19.4883 88.8962 19.4883ZM96.7762 21.8398V10.2898H99.8826V12.2586H99.9154C100.127 11.5659 100.459 11.0518 100.911 10.7164C101.363 10.381 101.972 10.2133 102.737 10.2133C102.927 10.2133 103.099 10.217 103.251 10.2242C103.412 10.2242 103.558 10.2278 103.689 10.2351V12.9805C103.572 12.9732 103.379 12.9622 103.109 12.9477C102.847 12.933 102.577 12.9258 102.299 12.9258C101.863 12.9258 101.469 13.0278 101.119 13.232C100.769 13.4289 100.495 13.7242 100.299 14.118C100.102 14.5117 100.003 15.0002 100.003 15.5836V21.8398H96.7762Z" fill="white"/>
</svg>
