<svg width="243" height="142" viewBox="0 0 243 142" fill="none" xmlns="http://www.w3.org/2000/svg">
<rect x="1.20228" y="0.439832" width="241.028" height="141.023" rx="8.3568" fill="#16282C"/>
<rect x="1.20228" y="0.439832" width="241.028" height="141.023" rx="8.3568" stroke="#2C6A77" stroke-width="0.879664"/>
<mask id="mask0_34734_35819" style="mask-type:luminance" maskUnits="userSpaceOnUse" x="6" y="9" width="18" height="19">
<path d="M23.6338 9.67627H6.04053V27.2695H23.6338V9.67627Z" fill="white"/>
</mask>
<g mask="url(#mask0_34734_35819)">
<path d="M20.6428 17.2413C20.0869 17.2413 19.6213 17.6139 19.4686 18.121H18.3376C18.2673 17.4144 17.9865 16.7687 17.5597 16.2475L18.3609 15.4467C18.535 15.541 18.731 15.5994 18.9425 15.5994C19.6217 15.5994 20.1741 15.0469 20.1741 14.3678C20.1741 13.6887 19.6217 13.1362 18.9425 13.1362C18.2634 13.1362 17.711 13.6887 17.711 14.3678C17.711 14.5789 17.7694 14.7749 17.8637 14.9491L17.0624 15.7503C16.5409 15.3235 15.8956 15.0431 15.189 14.9723V13.8414C15.696 13.6887 16.0687 13.2231 16.0687 12.6671C16.0687 11.988 15.5162 11.4355 14.8371 11.4355C14.158 11.4355 13.6055 11.988 13.6055 12.6671C13.6055 13.2231 13.9782 13.6887 14.4852 13.8414V14.9723C13.7787 15.0427 13.1333 15.3235 12.6118 15.7503L11.8106 14.9491C11.9049 14.7753 11.9633 14.5793 11.9633 14.3678C11.9633 13.6887 11.4108 13.1362 10.7317 13.1362C10.0526 13.1362 9.50011 13.6887 9.50011 14.3678C9.50011 15.0469 10.0526 15.5994 10.7317 15.5994C10.9432 15.5994 11.1392 15.541 11.3134 15.4467L12.1146 16.2475C11.6878 16.769 11.407 17.4144 11.3366 18.121H10.2056C10.0529 17.6139 9.58737 17.2413 9.0314 17.2413C8.35226 17.2413 7.7998 17.7937 7.7998 18.4729C7.7998 19.152 8.35226 19.7045 9.0314 19.7045C9.58737 19.7045 10.0529 19.3318 10.2056 18.8247H11.3366C11.407 19.5314 11.6878 20.177 12.1146 20.6981L11.3134 21.4991C11.1392 21.4048 10.9432 21.3464 10.7317 21.3464C10.0526 21.3464 9.50011 21.8988 9.50011 22.5779C9.50011 23.2571 10.0526 23.8095 10.7317 23.8095C11.4108 23.8095 11.9633 23.2571 11.9633 22.5779C11.9633 22.3668 11.9049 22.1708 11.8106 21.9966L12.6118 21.1954C13.1333 21.6222 13.7787 21.9027 14.4852 21.9734V23.1044C13.9782 23.2571 13.6055 23.7226 13.6055 24.2785C13.6055 24.9577 14.158 25.5102 14.8371 25.5102C15.5162 25.5102 16.0687 24.9577 16.0687 24.2785C16.0687 23.7226 15.696 23.2571 15.189 23.1044V21.9734C15.8956 21.903 16.5409 21.6222 17.0624 21.1954L17.8637 21.9966C17.7694 22.1704 17.711 22.3664 17.711 22.5779C17.711 23.2571 18.2634 23.8095 18.9425 23.8095C19.6217 23.8095 20.1741 23.2571 20.1741 22.5779C20.1741 21.8988 19.6217 21.3464 18.9425 21.3464C18.731 21.3464 18.535 21.4048 18.3609 21.4991L17.5597 20.6981C17.9865 20.1767 18.2673 19.5314 18.3376 18.8247H19.4686C19.6213 19.3318 20.0869 19.7045 20.6428 19.7045C21.322 19.7045 21.8744 19.152 21.8744 18.4729C21.8744 17.7937 21.322 17.2413 20.6428 17.2413ZM9.03069 19.0007C8.73968 19.0007 8.50287 18.7638 8.50287 18.4729C8.50287 18.1818 8.73968 17.945 9.03069 17.945C9.3217 17.945 9.55852 18.1818 9.55852 18.4729C9.55852 18.7638 9.3217 19.0007 9.03069 19.0007ZM18.9422 13.8396C19.2331 13.8396 19.47 14.0764 19.47 14.3674C19.47 14.6584 19.2331 14.8953 18.9422 14.8953C18.6512 14.8953 18.4144 14.6584 18.4144 14.3674C18.4144 14.0764 18.6512 13.8396 18.9422 13.8396ZM14.3089 12.6668C14.3089 12.3758 14.5458 12.139 14.8368 12.139C15.1278 12.139 15.3646 12.3758 15.3646 12.6668C15.3646 12.9578 15.1278 13.1946 14.8368 13.1946C14.5458 13.1946 14.3089 12.9578 14.3089 12.6668ZM10.7313 14.8953C10.4403 14.8953 10.2035 14.6584 10.2035 14.3674C10.2035 14.0764 10.4403 13.8396 10.7313 13.8396C11.0223 13.8396 11.2592 14.0764 11.2592 14.3674C11.2592 14.6584 11.0223 14.8953 10.7313 14.8953ZM10.7313 23.1061C10.4403 23.1061 10.2035 22.8693 10.2035 22.5782C10.2035 22.2873 10.4403 22.0504 10.7313 22.0504C11.0223 22.0504 11.2592 22.2873 11.2592 22.5782C11.2592 22.8693 11.0223 23.1061 10.7313 23.1061ZM15.3646 24.2789C15.3646 24.5699 15.1278 24.8068 14.8368 24.8068C14.5458 24.8068 14.3089 24.5699 14.3089 24.2789C14.3089 23.9879 14.5458 23.7511 14.8368 23.7511C15.1278 23.7511 15.3646 23.9879 15.3646 24.2789ZM18.9422 22.0504C19.2331 22.0504 19.47 22.2873 19.47 22.5782C19.47 22.8693 19.2331 23.1061 18.9422 23.1061C18.6512 23.1061 18.4144 22.8693 18.4144 22.5782C18.4144 22.2873 18.6512 22.0504 18.9422 22.0504ZM14.8368 21.288C13.2846 21.288 12.0217 20.025 12.0217 18.4729C12.0217 16.9207 13.2846 15.6578 14.8368 15.6578C16.3889 15.6578 17.6519 16.9207 17.6519 18.4729C17.6519 20.025 16.3889 21.288 14.8368 21.288ZM20.6428 19.0007C20.3518 19.0007 20.115 18.7638 20.115 18.4729C20.115 18.1818 20.3518 17.945 20.6428 17.945C20.9338 17.945 21.1707 18.1818 21.1707 18.4729C21.1707 18.7638 20.9338 19.0007 20.6428 19.0007Z" fill="#FCFCFC"/>
</g>
<g filter="url(#filter0_i_34734_35819)">
<path d="M216.375 17.2059C216.141 17.2059 215.984 17.0495 215.984 16.8149V13.2963C215.984 13.0617 216.141 12.9053 216.375 12.9053C216.61 12.9053 216.766 13.0617 216.766 13.2963V16.8149C216.766 17.0495 216.61 17.2059 216.375 17.2059ZM216.375 12.1234C216.141 12.1234 215.984 11.967 215.984 11.7325V10.9505C215.984 10.7159 216.141 10.5596 216.375 10.5596C216.61 10.5596 216.766 10.7159 216.766 10.9505V11.7325C216.766 11.967 216.61 12.1234 216.375 12.1234Z" fill="white"/>
<path d="M216.379 19.9398C213.134 19.9398 210.514 17.3203 210.514 14.0753C210.514 10.8304 213.134 8.21094 216.379 8.21094C219.624 8.21094 222.243 10.8304 222.243 14.0753C222.243 17.3203 219.624 19.9398 216.379 19.9398ZM216.379 8.99286C213.564 8.99286 211.296 11.2604 211.296 14.0753C211.296 16.8902 213.564 19.1578 216.379 19.1578C219.194 19.1578 221.461 16.8902 221.461 14.0753C221.461 11.2604 219.194 8.99286 216.379 8.99286Z" fill="white"/>
</g>
<path d="M31.5683 24.2925V14.6961H38.0346V16.3689H33.5972V18.6556H37.7019V20.3284H33.5972V22.6197H38.0533V24.2925H31.5683ZM41.5112 20.1316V24.2925H39.5151V17.0952H41.4175V18.3651H41.5019C41.6612 17.9465 41.9283 17.6153 42.3031 17.3717C42.678 17.1249 43.1325 17.0015 43.6667 17.0015C44.1665 17.0015 44.6023 17.1109 44.974 17.3295C45.3457 17.5482 45.6347 17.8606 45.8408 18.2667C46.047 18.6696 46.1501 19.1507 46.1501 19.7099V24.2925H44.154V20.066C44.1571 19.6255 44.0447 19.2819 43.8166 19.0351C43.5886 18.7852 43.2746 18.6603 42.8748 18.6603C42.6061 18.6603 42.3687 18.718 42.1626 18.8336C41.9595 18.9492 41.8002 19.1179 41.6846 19.3397C41.5722 19.5584 41.5144 19.8223 41.5112 20.1316ZM50.8708 27.1414C50.2242 27.1414 49.6697 27.0524 49.2074 26.8743C48.7482 26.6994 48.3827 26.4604 48.111 26.1574C47.8392 25.8544 47.6627 25.5139 47.5815 25.1359L49.4276 24.8876C49.4839 25.0313 49.5729 25.1656 49.6947 25.2905C49.8165 25.4155 49.9774 25.5155 50.1773 25.5904C50.3804 25.6685 50.6272 25.7076 50.9177 25.7076C51.3519 25.7076 51.7096 25.6014 51.9907 25.3889C52.275 25.1796 52.4171 24.8282 52.4171 24.3347V23.018H52.3328C52.2453 23.2179 52.1141 23.4069 51.9392 23.5849C51.7642 23.763 51.5393 23.9083 51.2644 24.0207C50.9895 24.1332 50.6615 24.1894 50.2804 24.1894C49.74 24.1894 49.248 24.0644 48.8044 23.8145C48.364 23.5615 48.0126 23.1757 47.7502 22.6572C47.4909 22.1355 47.3612 21.4764 47.3612 20.6798C47.3612 19.8645 47.494 19.1835 47.7595 18.6368C48.025 18.0902 48.378 17.6809 48.8185 17.4092C49.2621 17.1374 49.7478 17.0015 50.2757 17.0015C50.6787 17.0015 51.0161 17.0702 51.2879 17.2077C51.5596 17.342 51.7783 17.5107 51.9439 17.7137C52.1125 17.9137 52.2422 18.1105 52.3328 18.3041H52.4077V17.0952H54.3898V24.3628C54.3898 24.975 54.2399 25.4873 53.94 25.8997C53.6401 26.312 53.2246 26.6213 52.6936 26.8274C52.1657 27.0367 51.5581 27.1414 50.8708 27.1414ZM50.913 22.69C51.2348 22.69 51.5065 22.6103 51.7283 22.451C51.9532 22.2886 52.125 22.0574 52.2437 21.7575C52.3656 21.4545 52.4265 21.0921 52.4265 20.6704C52.4265 20.2487 52.3671 19.8832 52.2484 19.574C52.1297 19.2616 51.9579 19.0195 51.733 18.8477C51.5081 18.6759 51.2348 18.59 50.913 18.59C50.585 18.59 50.3085 18.679 50.0836 18.8571C49.8587 19.032 49.6885 19.2756 49.5729 19.588C49.4573 19.9004 49.3995 20.2612 49.3995 20.6704C49.3995 21.0859 49.4573 21.4451 49.5729 21.7481C49.6916 22.048 49.8618 22.2807 50.0836 22.4463C50.3085 22.6087 50.585 22.69 50.913 22.69ZM57.9356 24.4284C57.4764 24.4284 57.0672 24.3487 56.7079 24.1894C56.3487 24.027 56.0644 23.788 55.8551 23.4725C55.649 23.1539 55.5459 22.7571 55.5459 22.2823C55.5459 21.8825 55.6193 21.5467 55.7661 21.2749C55.9129 21.0031 56.1129 20.7844 56.3659 20.6189C56.6189 20.4533 56.9063 20.3284 57.2281 20.244C57.5529 20.1597 57.8934 20.1003 58.2495 20.066C58.6681 20.0222 59.0055 19.9816 59.2616 19.9441C59.5178 19.9035 59.7037 19.8442 59.8192 19.7661C59.9348 19.688 59.9926 19.5724 59.9926 19.4193V19.3912C59.9926 19.0945 59.8989 18.8649 59.7115 18.7024C59.5272 18.54 59.2648 18.4588 58.9243 18.4588C58.565 18.4588 58.2792 18.5384 58.0668 18.6977C57.8544 18.8539 57.7138 19.0507 57.6451 19.2881L55.7989 19.1382C55.8926 18.7009 56.0769 18.3229 56.3518 18.0043C56.6267 17.6825 56.9813 17.4357 57.4155 17.2639C57.8528 17.089 58.3589 17.0015 58.9336 17.0015C59.3335 17.0015 59.7162 17.0484 60.0816 17.1421C60.4503 17.2358 60.7767 17.3811 61.061 17.5779C61.3483 17.7747 61.5748 18.0277 61.7404 18.3369C61.9059 18.6431 61.9887 19.0101 61.9887 19.4381V24.2925H60.0957V23.2944H60.0395C59.9239 23.5193 59.7693 23.7177 59.5756 23.8895C59.3819 24.0582 59.1492 24.191 58.8774 24.2878C58.6056 24.3815 58.2917 24.4284 57.9356 24.4284ZM58.5072 23.0508C58.8009 23.0508 59.0602 22.993 59.2851 22.8774C59.51 22.7587 59.6865 22.5994 59.8146 22.3995C59.9426 22.1995 60.0067 21.9731 60.0067 21.72V20.9563C59.9442 20.9969 59.8583 21.0344 59.749 21.0687C59.6428 21.1 59.5225 21.1296 59.3882 21.1577C59.2538 21.1827 59.1195 21.2062 58.9852 21.228C58.8509 21.2468 58.729 21.264 58.6197 21.2796C58.3854 21.3139 58.1808 21.3686 58.0059 21.4436C57.8309 21.5185 57.6951 21.6201 57.5982 21.7481C57.5014 21.8731 57.453 22.0293 57.453 22.2167C57.453 22.4885 57.5514 22.6962 57.7482 22.8399C57.9481 22.9805 58.2011 23.0508 58.5072 23.0508ZM66.6849 27.1414C66.0382 27.1414 65.4838 27.0524 65.0214 26.8743C64.5622 26.6994 64.1968 26.4604 63.925 26.1574C63.6532 25.8544 63.4767 25.5139 63.3955 25.1359L65.2417 24.8876C65.2979 25.0313 65.3869 25.1656 65.5088 25.2905C65.6306 25.4155 65.7915 25.5155 65.9914 25.5904C66.1944 25.6685 66.4412 25.7076 66.7317 25.7076C67.1659 25.7076 67.5236 25.6014 67.8047 25.3889C68.089 25.1796 68.2311 24.8282 68.2311 24.3347V23.018H68.1468C68.0593 23.2179 67.9281 23.4069 67.7532 23.5849C67.5783 23.763 67.3534 23.9083 67.0785 24.0207C66.8036 24.1332 66.4756 24.1894 66.0945 24.1894C65.554 24.1894 65.062 24.0644 64.6185 23.8145C64.178 23.5615 63.8266 23.1757 63.5642 22.6572C63.3049 22.1355 63.1753 21.4764 63.1753 20.6798C63.1753 19.8645 63.308 19.1835 63.5736 18.6368C63.8391 18.0902 64.1921 17.6809 64.6325 17.4092C65.0761 17.1374 65.5619 17.0015 66.0898 17.0015C66.4927 17.0015 66.8301 17.0702 67.1019 17.2077C67.3737 17.342 67.5923 17.5107 67.7579 17.7137C67.9266 17.9137 68.0562 18.1105 68.1468 18.3041H68.2218V17.0952H70.2038V24.3628C70.2038 24.975 70.0539 25.4873 69.754 25.8997C69.4541 26.312 69.0387 26.6213 68.5076 26.8274C67.9797 27.0367 67.3721 27.1414 66.6849 27.1414ZM66.727 22.69C67.0488 22.69 67.3206 22.6103 67.5423 22.451C67.7673 22.2886 67.9391 22.0574 68.0578 21.7575C68.1796 21.4545 68.2405 21.0921 68.2405 20.6704C68.2405 20.2487 68.1812 19.8832 68.0625 19.574C67.9438 19.2616 67.7719 19.0195 67.547 18.8477C67.3221 18.6759 67.0488 18.59 66.727 18.59C66.399 18.59 66.1226 18.679 65.8977 18.8571C65.6728 19.032 65.5025 19.2756 65.3869 19.588C65.2713 19.9004 65.2136 20.2612 65.2136 20.6704C65.2136 21.0859 65.2713 21.4451 65.3869 21.7481C65.5056 22.048 65.6759 22.2807 65.8977 22.4463C66.1226 22.6087 66.399 22.69 66.727 22.69ZM74.9773 24.4331C74.2369 24.4331 73.5997 24.2831 73.0655 23.9832C72.5345 23.6802 72.1252 23.2523 71.8379 22.6993C71.5505 22.1433 71.4068 21.4857 71.4068 20.7267C71.4068 19.9863 71.5505 19.3366 71.8379 18.7774C72.1252 18.2182 72.5298 17.7825 73.0515 17.4701C73.5763 17.1577 74.1916 17.0015 74.8976 17.0015C75.3724 17.0015 75.8145 17.0781 76.2237 17.2311C76.636 17.3811 76.9953 17.6075 77.3014 17.9105C77.6106 18.2136 77.8512 18.5947 78.023 19.0539C78.1948 19.5099 78.2807 20.0441 78.2807 20.6564V21.2046H72.2033V19.9676H76.4017C76.4017 19.6802 76.3393 19.4256 76.2143 19.2038C76.0894 18.982 75.916 18.8086 75.6942 18.6837C75.4755 18.5556 75.2209 18.4916 74.9304 18.4916C74.6274 18.4916 74.3588 18.5619 74.1245 18.7024C73.8933 18.8399 73.7121 19.0257 73.5809 19.26C73.4497 19.4912 73.3826 19.7489 73.3795 20.0332V21.2093C73.3795 21.5654 73.4451 21.8731 73.5763 22.1324C73.7106 22.3916 73.8996 22.5916 74.1432 22.7321C74.3869 22.8727 74.6758 22.943 75.0101 22.943C75.2319 22.943 75.4349 22.9118 75.6192 22.8493C75.8035 22.7868 75.9613 22.6931 76.0925 22.5681C76.2237 22.4432 76.3236 22.2901 76.3924 22.1089L78.2385 22.2308C78.1448 22.6743 77.9527 23.0617 77.6622 23.3928C77.3748 23.7208 77.0031 23.977 76.547 24.1613C76.094 24.3425 75.5708 24.4331 74.9773 24.4331ZM79.4883 24.2925V17.0952H81.3907V18.3651H81.4751C81.625 17.9433 81.8749 17.6107 82.2248 17.367C82.5746 17.1233 82.9932 17.0015 83.4806 17.0015C83.9741 17.0015 84.3943 17.1249 84.741 17.3717C85.0877 17.6153 85.3189 17.9465 85.4345 18.3651H85.5095C85.6563 17.9527 85.9218 17.6232 86.306 17.3764C86.6934 17.1265 87.151 17.0015 87.6789 17.0015C88.3506 17.0015 88.8957 17.2155 89.3143 17.6435C89.736 18.0683 89.9468 18.6712 89.9468 19.4521V24.2925H87.9554V19.8457C87.9554 19.4459 87.8492 19.146 87.6368 18.9461C87.4244 18.7462 87.1588 18.6462 86.8402 18.6462C86.4778 18.6462 86.1951 18.7618 85.9921 18.9929C85.789 19.221 85.6875 19.5224 85.6875 19.8973V24.2925H83.7523V19.8036C83.7523 19.4506 83.6508 19.1694 83.4478 18.9601C83.2478 18.7508 82.9839 18.6462 82.6559 18.6462C82.4341 18.6462 82.2342 18.7024 82.0561 18.8149C81.8812 18.9242 81.7422 19.0788 81.6391 19.2788C81.536 19.4756 81.4844 19.7067 81.4844 19.9723V24.2925H79.4883ZM94.7086 24.4331C93.9682 24.4331 93.331 24.2831 92.7968 23.9832C92.2657 23.6802 91.8565 23.2523 91.5691 22.6993C91.2817 22.1433 91.138 21.4857 91.138 20.7267C91.138 19.9863 91.2817 19.3366 91.5691 18.7774C91.8565 18.2182 92.2611 17.7825 92.7827 17.4701C93.3075 17.1577 93.9229 17.0015 94.6289 17.0015C95.1037 17.0015 95.5457 17.0781 95.955 17.2311C96.3673 17.3811 96.7265 17.6075 97.0327 17.9105C97.3419 18.2136 97.5825 18.5947 97.7543 19.0539C97.9261 19.5099 98.012 20.0441 98.012 20.6564V21.2046H91.9346V19.9676H96.133C96.133 19.6802 96.0705 19.4256 95.9456 19.2038C95.8206 18.982 95.6473 18.8086 95.4255 18.6837C95.2068 18.5556 94.9522 18.4916 94.6617 18.4916C94.3587 18.4916 94.09 18.5619 93.8558 18.7024C93.6246 18.8399 93.4434 19.0257 93.3122 19.26C93.181 19.4912 93.1139 19.7489 93.1107 20.0332V21.2093C93.1107 21.5654 93.1763 21.8731 93.3075 22.1324C93.4419 22.3916 93.6308 22.5916 93.8745 22.7321C94.1182 22.8727 94.4071 22.943 94.7414 22.943C94.9631 22.943 95.1662 22.9118 95.3505 22.8493C95.5348 22.7868 95.6926 22.6931 95.8238 22.5681C95.955 22.4432 96.0549 22.2901 96.1236 22.1089L97.9698 22.2308C97.8761 22.6743 97.684 23.0617 97.3935 23.3928C97.1061 23.7208 96.7343 23.977 96.2783 24.1613C95.8253 24.3425 95.3021 24.4331 94.7086 24.4331ZM101.216 20.1316V24.2925H99.2196V17.0952H101.122V18.3651H101.206C101.366 17.9465 101.633 17.6153 102.008 17.3717C102.382 17.1249 102.837 17.0015 103.371 17.0015C103.871 17.0015 104.307 17.1109 104.678 17.3295C105.05 17.5482 105.339 17.8606 105.545 18.2667C105.751 18.6696 105.855 19.1507 105.855 19.7099V24.2925H103.858V20.066C103.862 19.6255 103.749 19.2819 103.521 19.0351C103.293 18.7852 102.979 18.6603 102.579 18.6603C102.311 18.6603 102.073 18.718 101.867 18.8336C101.664 18.9492 101.505 19.1179 101.389 19.3397C101.277 19.5584 101.219 19.8223 101.216 20.1316ZM111.161 17.0952V18.5947H106.827V17.0952H111.161ZM107.811 15.3709H109.807V22.0808C109.807 22.2651 109.835 22.4088 109.891 22.5119C109.947 22.6119 110.026 22.6822 110.125 22.7228C110.229 22.7634 110.347 22.7837 110.482 22.7837C110.575 22.7837 110.669 22.7759 110.763 22.7603C110.856 22.7415 110.928 22.7275 110.978 22.7181L111.292 24.2035C111.192 24.2347 111.052 24.2706 110.871 24.3112C110.689 24.355 110.469 24.3815 110.21 24.3909C109.729 24.4096 109.307 24.3456 108.945 24.1988C108.585 24.0519 108.306 23.8239 108.106 23.5147C107.906 23.2054 107.808 22.8149 107.811 22.3432V15.3709ZM118.322 24.2925V14.6961H122.108C122.832 14.6961 123.451 14.8258 123.963 15.0851C124.479 15.3412 124.871 15.7051 125.139 16.1768C125.411 16.6454 125.547 17.1968 125.547 17.8309C125.547 18.4681 125.41 19.0164 125.135 19.4756C124.86 19.9316 124.461 20.2815 123.94 20.5252C123.421 20.7688 122.793 20.8907 122.056 20.8907H119.521V19.26H121.728C122.115 19.26 122.437 19.2069 122.693 19.1007C122.95 18.9945 123.14 18.8352 123.265 18.6228C123.393 18.4104 123.457 18.1464 123.457 17.8309C123.457 17.5123 123.393 17.2436 123.265 17.0249C123.14 16.8063 122.948 16.6407 122.689 16.5283C122.433 16.4127 122.109 16.3549 121.719 16.3549H120.351V24.2925H118.322ZM123.504 19.9254L125.889 24.2925H123.649L121.316 19.9254H123.504ZM128.901 24.4284C128.441 24.4284 128.032 24.3487 127.673 24.1894C127.314 24.027 127.029 23.788 126.82 23.4725C126.614 23.1539 126.511 22.7571 126.511 22.2823C126.511 21.8825 126.584 21.5467 126.731 21.2749C126.878 21.0031 127.078 20.7844 127.331 20.6189C127.584 20.4533 127.871 20.3284 128.193 20.244C128.518 20.1597 128.858 20.1003 129.215 20.066C129.633 20.0222 129.971 19.9816 130.227 19.9441C130.483 19.9035 130.669 19.8442 130.784 19.7661C130.9 19.688 130.958 19.5724 130.958 19.4193V19.3912C130.958 19.0945 130.864 18.8649 130.677 18.7024C130.492 18.54 130.23 18.4588 129.889 18.4588C129.53 18.4588 129.244 18.5384 129.032 18.6977C128.819 18.8539 128.679 19.0507 128.61 19.2881L126.764 19.1382C126.858 18.7009 127.042 18.3229 127.317 18.0043C127.592 17.6825 127.946 17.4357 128.381 17.2639C128.818 17.089 129.324 17.0015 129.899 17.0015C130.299 17.0015 130.681 17.0484 131.047 17.1421C131.415 17.2358 131.742 17.3811 132.026 17.5779C132.313 17.7747 132.54 18.0277 132.705 18.3369C132.871 18.6431 132.954 19.0101 132.954 19.4381V24.2925H131.061V23.2944H131.005C130.889 23.5193 130.734 23.7177 130.541 23.8895C130.347 24.0582 130.114 24.191 129.842 24.2878C129.571 24.3815 129.257 24.4284 128.901 24.4284ZM129.472 23.0508C129.766 23.0508 130.025 22.993 130.25 22.8774C130.475 22.7587 130.652 22.5994 130.78 22.3995C130.908 22.1995 130.972 21.9731 130.972 21.72V20.9563C130.909 20.9969 130.823 21.0344 130.714 21.0687C130.608 21.1 130.488 21.1296 130.353 21.1577C130.219 21.1827 130.085 21.2062 129.95 21.228C129.816 21.2468 129.694 21.264 129.585 21.2796C129.35 21.3139 129.146 21.3686 128.971 21.4436C128.796 21.5185 128.66 21.6201 128.563 21.7481C128.466 21.8731 128.418 22.0293 128.418 22.2167C128.418 22.4885 128.516 22.6962 128.713 22.8399C128.913 22.9805 129.166 23.0508 129.472 23.0508ZM138.236 17.0952V18.5947H133.901V17.0952H138.236ZM134.885 15.3709H136.881V22.0808C136.881 22.2651 136.91 22.4088 136.966 22.5119C137.022 22.6119 137.1 22.6822 137.2 22.7228C137.303 22.7634 137.422 22.7837 137.556 22.7837C137.65 22.7837 137.744 22.7759 137.837 22.7603C137.931 22.7415 138.003 22.7275 138.053 22.7181L138.367 24.2035C138.267 24.2347 138.126 24.2706 137.945 24.3112C137.764 24.355 137.544 24.3815 137.284 24.3909C136.803 24.4096 136.382 24.3456 136.019 24.1988C135.66 24.0519 135.38 23.8239 135.181 23.5147C134.981 23.2054 134.882 22.8149 134.885 22.3432V15.3709ZM139.441 24.2925V17.0952H141.437V24.2925H139.441ZM140.444 16.1675C140.147 16.1675 139.892 16.0691 139.68 15.8723C139.471 15.6723 139.366 15.4334 139.366 15.1553C139.366 14.8805 139.471 14.6446 139.68 14.4478C139.892 14.2479 140.147 14.1479 140.444 14.1479C140.74 14.1479 140.993 14.2479 141.203 14.4478C141.415 14.6446 141.521 14.8805 141.521 15.1553C141.521 15.4334 141.415 15.6723 141.203 15.8723C140.993 16.0691 140.74 16.1675 140.444 16.1675ZM144.937 20.1316V24.2925H142.941V17.0952H144.843V18.3651H144.928C145.087 17.9465 145.354 17.6153 145.729 17.3717C146.104 17.1249 146.558 17.0015 147.093 17.0015C147.592 17.0015 148.028 17.1109 148.4 17.3295C148.772 17.5482 149.061 17.8606 149.267 18.2667C149.473 18.6696 149.576 19.1507 149.576 19.7099V24.2925H147.58V20.066C147.583 19.6255 147.471 19.2819 147.242 19.0351C147.014 18.7852 146.701 18.6603 146.301 18.6603C146.032 18.6603 145.795 18.718 145.588 18.8336C145.385 18.9492 145.226 19.1179 145.11 19.3397C144.998 19.5584 144.94 19.8223 144.937 20.1316ZM154.297 27.1414C153.65 27.1414 153.096 27.0524 152.633 26.8743C152.174 26.6994 151.809 26.4604 151.537 26.1574C151.265 25.8544 151.089 25.5139 151.007 25.1359L152.854 24.8876C152.91 25.0313 152.999 25.1656 153.121 25.2905C153.242 25.4155 153.403 25.5155 153.603 25.5904C153.806 25.6685 154.053 25.7076 154.344 25.7076C154.778 25.7076 155.135 25.6014 155.417 25.3889C155.701 25.1796 155.843 24.8282 155.843 24.3347V23.018H155.759C155.671 23.2179 155.54 23.4069 155.365 23.5849C155.19 23.763 154.965 23.9083 154.69 24.0207C154.415 24.1332 154.087 24.1894 153.706 24.1894C153.166 24.1894 152.674 24.0644 152.23 23.8145C151.79 23.5615 151.438 23.1757 151.176 22.6572C150.917 22.1355 150.787 21.4764 150.787 20.6798C150.787 19.8645 150.92 19.1835 151.185 18.6368C151.451 18.0902 151.804 17.6809 152.244 17.4092C152.688 17.1374 153.174 17.0015 153.702 17.0015C154.105 17.0015 154.442 17.0702 154.714 17.2077C154.986 17.342 155.204 17.5107 155.37 17.7137C155.538 17.9137 155.668 18.1105 155.759 18.3041H155.834V17.0952H157.816V24.3628C157.816 24.975 157.666 25.4873 157.366 25.8997C157.066 26.312 156.65 26.6213 156.119 26.8274C155.592 27.0367 154.984 27.1414 154.297 27.1414ZM154.339 22.69C154.661 22.69 154.932 22.6103 155.154 22.451C155.379 22.2886 155.551 22.0574 155.67 21.7575C155.791 21.4545 155.852 21.0921 155.852 20.6704C155.852 20.2487 155.793 19.8832 155.674 19.574C155.556 19.2616 155.384 19.0195 155.159 18.8477C154.934 18.6759 154.661 18.59 154.339 18.59C154.011 18.59 153.734 18.679 153.51 18.8571C153.285 19.032 153.114 19.2756 152.999 19.588C152.883 19.9004 152.825 20.2612 152.825 20.6704C152.825 21.0859 152.883 21.4451 152.999 21.7481C153.117 22.048 153.288 22.2807 153.51 22.4463C153.734 22.6087 154.011 22.69 154.339 22.69Z" fill="#FCFCFC"/>
<path d="M153.824 85.3276C153.824 102.817 139.646 116.995 122.156 116.995C104.666 116.995 90.4883 102.817 90.4883 85.3276C90.4883 67.8379 104.666 53.6597 122.156 53.6597C139.646 53.6597 153.824 67.8379 153.824 85.3276ZM98.7618 85.3276C98.7618 98.2479 109.236 108.722 122.156 108.722C135.077 108.722 145.551 98.2479 145.551 85.3276C145.551 72.4072 135.077 61.9332 122.156 61.9332C109.236 61.9332 98.7618 72.4072 98.7618 85.3276Z" fill="#111315"/>
<path d="M149.687 85.3276C151.972 85.3276 153.852 87.1875 153.554 89.4527C152.76 95.4964 150.233 101.215 146.237 105.894C141.34 111.628 134.558 115.426 127.11 116.606C119.663 117.785 112.039 116.269 105.61 112.329C99.1806 108.389 94.3683 102.285 92.0382 95.1135C89.7082 87.9423 90.0133 80.175 92.8989 73.2088C95.7844 66.2425 101.061 60.5345 107.779 57.1113C114.498 53.6881 122.217 52.7744 129.549 54.5347C135.533 55.9713 140.938 59.1121 145.133 63.5349C146.705 65.1926 146.278 67.8023 144.429 69.1452C142.581 70.4881 140.016 70.045 138.369 68.4617C135.389 65.5976 131.684 63.5559 127.617 62.5796C122.201 61.2792 116.498 61.9542 111.535 64.483C106.572 67.0119 102.674 71.2287 100.543 76.3749C98.411 81.5212 98.1855 87.2592 99.9068 92.5568C101.628 97.8545 105.183 102.364 109.933 105.275C114.682 108.185 120.314 109.305 125.816 108.434C131.318 107.563 136.328 104.757 139.945 100.521C142.661 97.3409 144.459 93.5114 145.186 89.4429C145.588 87.1938 147.403 85.3276 149.687 85.3276Z" fill="#38D477"/>
<path d="M114.588 78.9865C115.299 78.9865 115.983 79.1057 116.639 79.3441C117.301 79.5825 117.89 79.9626 118.407 80.4844C118.929 81.0062 119.341 81.699 119.642 82.5626C119.948 83.4218 120.103 84.4766 120.108 85.7272C120.108 86.9012 119.975 87.9493 119.709 88.8715C119.449 89.7891 119.073 90.5696 118.583 91.2128C118.092 91.8561 117.501 92.3464 116.808 92.6838C116.115 93.0166 115.342 93.1831 114.487 93.1831C113.565 93.1831 112.751 93.0054 112.044 92.65C111.338 92.2902 110.769 91.8021 110.337 91.1858C109.91 90.5651 109.651 89.8678 109.561 89.0941H112.442C112.555 89.5979 112.791 89.9893 113.151 90.2682C113.511 90.5426 113.956 90.6798 114.487 90.6798C115.387 90.6798 116.07 90.2884 116.538 89.5057C117.006 88.7185 117.242 87.6412 117.247 86.2737H117.152C116.945 86.6786 116.666 87.0272 116.316 87.3196C115.965 87.6075 115.562 87.8301 115.108 87.9876C114.658 88.145 114.179 88.2237 113.671 88.2237C112.856 88.2237 112.13 88.0325 111.491 87.6502C110.852 87.2678 110.349 86.7415 109.98 86.0713C109.611 85.401 109.426 84.6363 109.426 83.7772C109.422 82.8505 109.636 82.0251 110.067 81.3009C110.499 80.5766 111.102 80.0099 111.876 79.6005C112.654 79.1867 113.558 78.982 114.588 78.9865ZM114.608 81.2806C114.154 81.2806 113.749 81.3886 113.394 81.6045C113.043 81.8204 112.764 82.1106 112.557 82.4749C112.355 82.8393 112.256 83.2464 112.26 83.6962C112.26 84.1505 112.359 84.5599 112.557 84.9242C112.76 85.2841 113.034 85.572 113.38 85.7879C113.731 85.9993 114.132 86.105 114.581 86.105C114.919 86.105 115.231 86.042 115.519 85.9161C115.807 85.7901 116.057 85.617 116.268 85.3965C116.484 85.1716 116.653 84.913 116.774 84.6206C116.896 84.3282 116.957 84.0178 116.957 83.6894C116.952 83.2531 116.849 82.8528 116.646 82.4884C116.444 82.124 116.165 81.8317 115.809 81.6112C115.454 81.3908 115.054 81.2806 114.608 81.2806ZM127.55 93.2978C126.389 93.2933 125.391 93.0076 124.554 92.4409C123.722 91.8741 123.081 91.0531 122.631 89.978C122.186 88.903 121.965 87.6097 121.97 86.0983C121.97 84.5914 122.193 83.3071 122.638 82.2455C123.088 81.1839 123.729 80.3765 124.561 79.8232C125.398 79.2654 126.394 78.9865 127.55 78.9865C128.706 78.9865 129.7 79.2654 130.532 79.8232C131.369 80.381 132.012 81.1907 132.462 82.2522C132.912 83.3093 133.135 84.5914 133.13 86.0983C133.13 87.6142 132.905 88.9097 132.455 89.9848C132.01 91.0599 131.371 91.8808 130.539 92.4476C129.707 93.0144 128.711 93.2978 127.55 93.2978ZM127.55 90.8755C128.342 90.8755 128.974 90.4774 129.446 89.6812C129.918 88.885 130.152 87.6907 130.148 86.0983C130.148 85.0502 130.04 84.1775 129.824 83.4803C129.612 82.783 129.311 82.259 128.92 81.9081C128.533 81.5573 128.076 81.3818 127.55 81.3818C126.763 81.3818 126.133 81.7754 125.661 82.5626C125.188 83.3498 124.95 84.5284 124.945 86.0983C124.945 87.1599 125.051 88.046 125.263 88.7568C125.478 89.463 125.782 89.9938 126.173 90.3492C126.565 90.7 127.024 90.8755 127.55 90.8755Z" fill="#EDF1F5"/>
<defs>
<filter id="filter0_i_34734_35819" x="207.483" y="5.27783" width="18.4731" height="21.1119" filterUnits="userSpaceOnUse" color-interpolation-filters="sRGB">
<feFlood flood-opacity="0" result="BackgroundImageFix"/>
<feBlend mode="normal" in="SourceGraphic" in2="BackgroundImageFix" result="shape"/>
<feColorMatrix in="SourceAlpha" type="matrix" values="0 0 0 0 0 0 0 0 0 0 0 0 0 0 0 0 0 0 127 0" result="hardAlpha"/>
<feOffset dy="3.51865"/>
<feGaussianBlur stdDeviation="1.75933"/>
<feComposite in2="hardAlpha" operator="arithmetic" k2="-1" k3="1"/>
<feColorMatrix type="matrix" values="0 0 0 0 0 0 0 0 0 0 0 0 0 0 0 0 0 0 0.25 0"/>
<feBlend mode="normal" in2="shape" result="effect1_innerShadow_34734_35819"/>
</filter>
</defs>
</svg>
