<svg width="243" height="148" viewBox="0 0 243 148" fill="none" xmlns="http://www.w3.org/2000/svg">
<rect x="0.961804" y="1.37684" width="241.028" height="145.43" rx="8.3568" fill="#16282C"/>
<rect x="0.961804" y="1.37684" width="241.028" height="145.43" rx="8.3568" stroke="#2C6A77" stroke-width="0.879664"/>
<mask id="mask0_34734_35833" style="mask-type:luminance" maskUnits="userSpaceOnUse" x="5" y="10" width="19" height="19">
<path d="M23.3931 10.6133H5.7998V28.2066H23.3931V10.6133Z" fill="white"/>
</mask>
<g mask="url(#mask0_34734_35833)">
<path d="M20.4021 18.1783C19.8461 18.1783 19.3806 18.5509 19.2279 19.058H18.0969C18.0266 18.3514 17.7458 17.7057 17.319 17.1846L18.1201 16.3837C18.2943 16.478 18.4903 16.5364 18.7018 16.5364C19.381 16.5364 19.9334 15.9839 19.9334 15.3048C19.9334 14.6257 19.381 14.0732 18.7018 14.0732C18.0227 14.0732 17.4703 14.6257 17.4703 15.3048C17.4703 15.5159 17.5287 15.7119 17.623 15.8861L16.8217 16.6874C16.3002 16.2605 15.6549 15.9801 14.9483 15.9093V14.7784C15.4553 14.6257 15.828 14.1601 15.828 13.6041C15.828 12.925 15.2755 12.3726 14.5964 12.3726C13.9173 12.3726 13.3648 12.925 13.3648 13.6041C13.3648 14.1601 13.7374 14.6257 14.2445 14.7784V15.9093C13.5379 15.9797 12.8926 16.2605 12.3711 16.6874L11.5698 15.8861C11.6641 15.7123 11.7226 15.5163 11.7226 15.3048C11.7226 14.6257 11.1701 14.0732 10.491 14.0732C9.81184 14.0732 9.25938 14.6257 9.25938 15.3048C9.25938 15.9839 9.81184 16.5364 10.491 16.5364C10.7025 16.5364 10.8985 16.478 11.0726 16.3837L11.8739 17.1846C11.447 17.706 11.1662 18.3514 11.0959 19.058H9.96491C9.81219 18.5509 9.34665 18.1783 8.79067 18.1783C8.11154 18.1783 7.55908 18.7307 7.55908 19.4099C7.55908 20.089 8.11154 20.6415 8.79067 20.6415C9.34665 20.6415 9.81219 20.2688 9.96491 19.7617H11.0959C11.1662 20.4684 11.447 21.114 11.8739 21.6352L11.0726 22.4361C10.8985 22.3418 10.7025 22.2834 10.491 22.2834C9.81184 22.2834 9.25938 22.8358 9.25938 23.5149C9.25938 24.1941 9.81184 24.7465 10.491 24.7465C11.1701 24.7465 11.7226 24.1941 11.7226 23.5149C11.7226 23.3038 11.6641 23.1078 11.5698 22.9336L12.3711 22.1324C12.8926 22.5592 13.5379 22.8397 14.2445 22.9104V24.0414C13.7374 24.1941 13.3648 24.6596 13.3648 25.2156C13.3648 25.8947 13.9173 26.4472 14.5964 26.4472C15.2755 26.4472 15.828 25.8947 15.828 25.2156C15.828 24.6596 15.4553 24.1941 14.9483 24.0414V22.9104C15.6549 22.84 16.3002 22.5592 16.8217 22.1324L17.623 22.9336C17.5287 23.1074 17.4703 23.3034 17.4703 23.5149C17.4703 24.1941 18.0227 24.7465 18.7018 24.7465C19.381 24.7465 19.9334 24.1941 19.9334 23.5149C19.9334 22.8358 19.381 22.2834 18.7018 22.2834C18.4903 22.2834 18.2943 22.3418 18.1201 22.4361L17.319 21.6352C17.7458 21.1137 18.0266 20.4684 18.0969 19.7617H19.2279C19.3806 20.2688 19.8461 20.6415 20.4021 20.6415C21.0813 20.6415 21.6337 20.089 21.6337 19.4099C21.6337 18.7307 21.0813 18.1783 20.4021 18.1783ZM8.78997 19.9377C8.49896 19.9377 8.26214 19.7009 8.26214 19.4099C8.26214 19.1189 8.49896 18.882 8.78997 18.882C9.08098 18.882 9.31779 19.1189 9.31779 19.4099C9.31779 19.7009 9.08098 19.9377 8.78997 19.9377ZM18.7014 14.7766C18.9924 14.7766 19.2293 15.0134 19.2293 15.3045C19.2293 15.5955 18.9924 15.8323 18.7014 15.8323C18.4104 15.8323 18.1736 15.5955 18.1736 15.3045C18.1736 15.0134 18.4104 14.7766 18.7014 14.7766ZM14.0682 13.6038C14.0682 13.3128 14.305 13.076 14.596 13.076C14.887 13.076 15.1238 13.3128 15.1238 13.6038C15.1238 13.8948 14.887 14.1316 14.596 14.1316C14.305 14.1316 14.0682 13.8948 14.0682 13.6038ZM10.4906 15.8323C10.1996 15.8323 9.9628 15.5955 9.9628 15.3045C9.9628 15.0134 10.1996 14.7766 10.4906 14.7766C10.7816 14.7766 11.0184 15.0134 11.0184 15.3045C11.0184 15.5955 10.7816 15.8323 10.4906 15.8323ZM10.4906 24.0431C10.1996 24.0431 9.9628 23.8063 9.9628 23.5153C9.9628 23.2243 10.1996 22.9875 10.4906 22.9875C10.7816 22.9875 11.0184 23.2243 11.0184 23.5153C11.0184 23.8063 10.7816 24.0431 10.4906 24.0431ZM15.1238 25.2159C15.1238 25.5069 14.887 25.7438 14.596 25.7438C14.305 25.7438 14.0682 25.5069 14.0682 25.2159C14.0682 24.9249 14.305 24.6881 14.596 24.6881C14.887 24.6881 15.1238 24.9249 15.1238 25.2159ZM18.7014 22.9875C18.9924 22.9875 19.2293 23.2243 19.2293 23.5153C19.2293 23.8063 18.9924 24.0431 18.7014 24.0431C18.4104 24.0431 18.1736 23.8063 18.1736 23.5153C18.1736 23.2243 18.4104 22.9875 18.7014 22.9875ZM14.596 22.225C13.0439 22.225 11.781 20.962 11.781 19.4099C11.781 17.8577 13.0439 16.5948 14.596 16.5948C16.1482 16.5948 17.4111 17.8577 17.4111 19.4099C17.4111 20.962 16.1482 22.225 14.596 22.225ZM20.4021 19.9377C20.1111 19.9377 19.8743 19.7009 19.8743 19.4099C19.8743 19.1189 20.1111 18.882 20.4021 18.882C20.6931 18.882 20.93 19.1189 20.93 19.4099C20.93 19.7009 20.6931 19.9377 20.4021 19.9377Z" fill="#FCFCFC"/>
</g>
<g filter="url(#filter0_i_34734_35833)">
<path d="M216.135 19.9017C215.9 19.9017 215.744 19.7453 215.744 19.5107V15.9921C215.744 15.7575 215.9 15.6011 216.135 15.6011C216.369 15.6011 216.526 15.7575 216.526 15.9921V19.5107C216.526 19.7453 216.369 19.9017 216.135 19.9017ZM216.135 14.8192C215.9 14.8192 215.744 14.6628 215.744 14.4283V13.6463C215.744 13.4117 215.9 13.2554 216.135 13.2554C216.369 13.2554 216.526 13.4117 216.526 13.6463V14.4283C216.526 14.6628 216.369 14.8192 216.135 14.8192Z" fill="white"/>
<path d="M216.138 22.6356C212.893 22.6356 210.273 20.0161 210.273 16.7711C210.273 13.5262 212.893 10.9067 216.138 10.9067C219.383 10.9067 222.002 13.5262 222.002 16.7711C222.002 20.0161 219.383 22.6356 216.138 22.6356ZM216.138 11.6887C213.323 11.6887 211.055 13.9562 211.055 16.7711C211.055 19.586 213.323 21.8536 216.138 21.8536C218.953 21.8536 221.22 19.586 221.22 16.7711C221.22 13.9562 218.953 11.6887 216.138 11.6887Z" fill="white"/>
</g>
<path d="M39.8188 18.9923H37.7664C37.729 18.7268 37.6524 18.491 37.5368 18.2848C37.4213 18.0755 37.2729 17.8974 37.0917 17.7506C36.9105 17.6038 36.7012 17.4913 36.4638 17.4132C36.2295 17.3351 35.9749 17.2961 35.7 17.2961C35.2034 17.2961 34.7707 17.4195 34.4021 17.6663C34.0335 17.9099 33.7477 18.266 33.5446 18.7346C33.3416 19.2001 33.24 19.7655 33.24 20.4308C33.24 21.115 33.3416 21.6897 33.5446 22.1552C33.7508 22.6206 34.0382 22.9721 34.4068 23.2095C34.7754 23.4469 35.2018 23.5656 35.686 23.5656C35.9578 23.5656 36.2092 23.5297 36.4404 23.4578C36.6747 23.386 36.8824 23.2813 37.0636 23.1439C37.2448 23.0033 37.3947 22.833 37.5134 22.6331C37.6352 22.4332 37.7196 22.2052 37.7664 21.949L39.8188 21.9584C39.7657 22.3988 39.6329 22.8237 39.4205 23.2329C39.2112 23.639 38.9285 24.0029 38.5724 24.3247C38.2194 24.6433 37.7977 24.8963 37.3072 25.0837C36.8199 25.2681 36.2686 25.3602 35.6532 25.3602C34.7973 25.3602 34.0319 25.1665 33.3572 24.7792C32.6856 24.3918 32.1545 23.8311 31.764 23.097C31.3767 22.3629 31.183 21.4742 31.183 20.4308C31.183 19.3844 31.3798 18.4941 31.7734 17.76C32.167 17.0259 32.7012 16.4667 33.3759 16.0825C34.0507 15.6951 34.8098 15.5015 35.6532 15.5015C36.2092 15.5015 36.7247 15.5796 37.1995 15.7358C37.6774 15.8919 38.1007 16.12 38.4693 16.4199C38.8379 16.7166 39.1378 17.0806 39.369 17.5116C39.6032 17.9427 39.7532 18.4363 39.8188 18.9923ZM44.3931 25.3696C43.6652 25.3696 43.0358 25.2149 42.5047 24.9057C41.9768 24.5933 41.5692 24.1591 41.2818 23.6031C40.9944 23.0439 40.8507 22.3957 40.8507 21.6585C40.8507 20.915 40.9944 20.2653 41.2818 19.7092C41.5692 19.1501 41.9768 18.7159 42.5047 18.4066C43.0358 18.0942 43.6652 17.938 44.3931 17.938C45.1209 17.938 45.7488 18.0942 46.2767 18.4066C46.8078 18.7159 47.217 19.1501 47.5044 19.7092C47.7918 20.2653 47.9355 20.915 47.9355 21.6585C47.9355 22.3957 47.7918 23.0439 47.5044 23.6031C47.217 24.1591 46.8078 24.5933 46.2767 24.9057C45.7488 25.2149 45.1209 25.3696 44.3931 25.3696ZM44.4025 23.8233C44.7336 23.8233 45.01 23.7296 45.2318 23.5421C45.4536 23.3516 45.6207 23.0923 45.7332 22.7643C45.8488 22.4363 45.9066 22.063 45.9066 21.6444C45.9066 21.2258 45.8488 20.8526 45.7332 20.5246C45.6207 20.1966 45.4536 19.9373 45.2318 19.7467C45.01 19.5562 44.7336 19.4609 44.4025 19.4609C44.0682 19.4609 43.7871 19.5562 43.559 19.7467C43.3341 19.9373 43.1639 20.1966 43.0483 20.5246C42.9358 20.8526 42.8796 21.2258 42.8796 21.6444C42.8796 22.063 42.9358 22.4363 43.0483 22.7643C43.1639 23.0923 43.3341 23.3516 43.559 23.5421C43.7871 23.7296 44.0682 23.8233 44.4025 23.8233ZM51.1345 21.0681V25.229H49.1384V18.0318H51.0408V19.3016H51.1252C51.2845 18.883 51.5516 18.5519 51.9264 18.3082C52.3013 18.0614 52.7558 17.938 53.29 17.938C53.7898 17.938 54.2255 18.0474 54.5973 18.266C54.969 18.4847 55.258 18.7971 55.4641 19.2032C55.6703 19.6062 55.7734 20.0872 55.7734 20.6464V25.229H53.7773V21.0025C53.7804 20.562 53.6679 20.2184 53.4399 19.9716C53.2119 19.7217 52.8979 19.5968 52.4981 19.5968C52.2294 19.5968 51.992 19.6546 51.7858 19.7702C51.5828 19.8857 51.4235 20.0544 51.3079 20.2762C51.1954 20.4949 51.1377 20.7588 51.1345 21.0681ZM61.0798 18.0318V19.5312H56.7456V18.0318H61.0798ZM57.7295 16.3074H59.7257V23.0173C59.7257 23.2017 59.7538 23.3453 59.81 23.4484C59.8662 23.5484 59.9443 23.6187 60.0443 23.6593C60.1474 23.6999 60.2661 23.7202 60.4004 23.7202C60.4941 23.7202 60.5878 23.7124 60.6815 23.6968C60.7753 23.678 60.8471 23.664 60.8971 23.6546L61.211 25.14C61.1111 25.1712 60.9705 25.2071 60.7893 25.2477C60.6081 25.2915 60.3879 25.318 60.1286 25.3274C59.6476 25.3461 59.2259 25.2821 58.8635 25.1353C58.5043 24.9885 58.2247 24.7604 58.0247 24.4512C57.8248 24.1419 57.7264 23.7514 57.7295 23.2797V16.3074ZM62.2851 25.229V18.0318H64.2203V19.2875H64.2953C64.4265 18.8408 64.6467 18.5035 64.956 18.2754C65.2652 18.0443 65.6213 17.9287 66.0243 17.9287C66.1243 17.9287 66.232 17.9349 66.3476 17.9474C66.4632 17.9599 66.5647 17.9771 66.6522 17.999V19.7702C66.5585 19.742 66.4288 19.717 66.2633 19.6952C66.0977 19.6733 65.9462 19.6624 65.8088 19.6624C65.5151 19.6624 65.2527 19.7264 65.0216 19.8545C64.7935 19.9794 64.6123 20.1544 64.478 20.3793C64.3468 20.6042 64.2812 20.8635 64.2812 21.1571V25.229H62.2851ZM69.4354 25.3649C68.9762 25.3649 68.567 25.2852 68.2077 25.1259C67.8485 24.9635 67.5642 24.7245 67.3549 24.409C67.1488 24.0904 67.0457 23.6937 67.0457 23.2188C67.0457 22.819 67.1191 22.4832 67.2659 22.2114C67.4127 21.9396 67.6126 21.721 67.8657 21.5554C68.1187 21.3898 68.4061 21.2649 68.7278 21.1806C69.0527 21.0962 69.3932 21.0369 69.7493 21.0025C70.1679 20.9588 70.5053 20.9182 70.7614 20.8807C71.0176 20.8401 71.2035 20.7807 71.319 20.7026C71.4346 20.6245 71.4924 20.5089 71.4924 20.3559V20.3278C71.4924 20.031 71.3987 19.8014 71.2113 19.639C71.027 19.4765 70.7646 19.3953 70.4241 19.3953C70.0648 19.3953 69.779 19.475 69.5666 19.6343C69.3542 19.7905 69.2136 19.9873 69.1449 20.2247L67.2987 20.0747C67.3924 19.6374 67.5767 19.2594 67.8516 18.9408C68.1265 18.619 68.4811 18.3723 68.9153 18.2004C69.3526 18.0255 69.8587 17.938 70.4334 17.938C70.8333 17.938 71.216 17.9849 71.5814 18.0786C71.95 18.1723 72.2765 18.3176 72.5608 18.5144C72.8481 18.7112 73.0746 18.9642 73.2402 19.2735C73.4057 19.5796 73.4885 19.9466 73.4885 20.3746V25.229H71.5955V24.2309H71.5393C71.4237 24.4559 71.2691 24.6542 71.0754 24.826C70.8817 24.9947 70.649 25.1275 70.3772 25.2243C70.1054 25.318 69.7915 25.3649 69.4354 25.3649ZM70.007 23.9873C70.3007 23.9873 70.56 23.9295 70.7849 23.8139C71.0098 23.6952 71.1863 23.5359 71.3144 23.336C71.4424 23.1361 71.5065 22.9096 71.5065 22.6565V21.8928C71.444 21.9334 71.3581 21.9709 71.2488 22.0052C71.1425 22.0365 71.0223 22.0662 70.888 22.0943C70.7536 22.1193 70.6193 22.1427 70.485 22.1646C70.3507 22.1833 70.2288 22.2005 70.1195 22.2161C69.8852 22.2505 69.6806 22.3051 69.5057 22.3801C69.3307 22.4551 69.1948 22.5566 69.098 22.6847C69.0012 22.8096 68.9528 22.9658 68.9528 23.1532C68.9528 23.425 69.0512 23.6327 69.248 23.7764C69.4479 23.917 69.7009 23.9873 70.007 23.9873ZM78.194 25.3696C77.4568 25.3696 76.8227 25.2134 76.2916 24.901C75.7637 24.5855 75.3576 24.1482 75.0733 23.589C74.7922 23.0298 74.6516 22.3863 74.6516 21.6585C74.6516 20.9213 74.7938 20.2746 75.078 19.7186C75.3654 19.1594 75.7731 18.7237 76.301 18.4113C76.8289 18.0958 77.4568 17.938 78.1847 17.938C78.8125 17.938 79.3623 18.0521 79.834 18.2801C80.3057 18.5081 80.679 18.8283 80.9539 19.2407C81.2288 19.653 81.3803 20.1372 81.4084 20.6932H79.5248C79.4717 20.334 79.3311 20.045 79.1031 19.8264C78.8781 19.6046 78.5829 19.4937 78.2175 19.4937C77.9082 19.4937 77.638 19.578 77.4068 19.7467C77.1788 19.9123 77.0007 20.1544 76.8727 20.473C76.7446 20.7916 76.6805 21.1774 76.6805 21.6304C76.6805 22.0896 76.743 22.4801 76.868 22.8018C76.996 23.1236 77.1757 23.3688 77.4068 23.5375C77.638 23.7061 77.9082 23.7905 78.2175 23.7905C78.4455 23.7905 78.6501 23.7436 78.8313 23.6499C79.0156 23.5562 79.1671 23.4203 79.2858 23.2423C79.4076 23.0611 79.4873 22.844 79.5248 22.5909H81.4084C81.3772 23.1407 81.2272 23.6249 80.9586 24.0435C80.6931 24.459 80.326 24.7839 79.8575 25.0181C79.3889 25.2524 78.8344 25.3696 78.194 25.3696ZM86.4197 18.0318V19.5312H82.0854V18.0318H86.4197ZM83.0694 16.3074H85.0655V23.0173C85.0655 23.2017 85.0936 23.3453 85.1498 23.4484C85.2061 23.5484 85.2842 23.6187 85.3841 23.6593C85.4872 23.6999 85.6059 23.7202 85.7402 23.7202C85.834 23.7202 85.9277 23.7124 86.0214 23.6968C86.1151 23.678 86.1869 23.664 86.2369 23.6546L86.5509 25.14C86.4509 25.1712 86.3103 25.2071 86.1292 25.2477C85.948 25.2915 85.7277 25.318 85.4685 25.3274C84.9874 25.3461 84.5657 25.2821 84.2033 25.1353C83.8441 24.9885 83.5645 24.7604 83.3646 24.4512C83.1647 24.1419 83.0663 23.7514 83.0694 23.2797V16.3074ZM95.8272 18.3926C95.7897 18.0146 95.6288 17.7209 95.3445 17.5116C95.0603 17.3023 94.6745 17.1977 94.1872 17.1977C93.856 17.1977 93.5765 17.2446 93.3484 17.3383C93.1204 17.4289 92.9455 17.5554 92.8236 17.7178C92.7049 17.8803 92.6456 18.0646 92.6456 18.2707C92.6393 18.4425 92.6752 18.5925 92.7533 18.7206C92.8346 18.8486 92.9455 18.9595 93.086 19.0532C93.2266 19.1438 93.389 19.2235 93.5733 19.2922C93.7576 19.3578 93.9544 19.414 94.1637 19.4609L95.0259 19.6671C95.4445 19.7608 95.8287 19.8857 96.1786 20.0419C96.5285 20.1981 96.8315 20.3902 97.0876 20.6183C97.3438 20.8463 97.5421 21.115 97.6827 21.4242C97.8264 21.7335 97.8998 22.088 97.9029 22.4879C97.8998 23.0751 97.7499 23.5843 97.4531 24.0154C97.1595 24.4434 96.7346 24.7761 96.1786 25.0135C95.6257 25.2477 94.9587 25.3649 94.1778 25.3649C93.4031 25.3649 92.7283 25.2462 92.1536 25.0088C91.5819 24.7714 91.1352 24.4199 90.8135 23.9545C90.4948 23.4859 90.3277 22.9065 90.3121 22.2161H92.2754C92.2973 22.5378 92.3894 22.8065 92.5519 23.022C92.7174 23.2345 92.9376 23.3953 93.2125 23.5047C93.4906 23.6109 93.8045 23.664 94.1544 23.664C94.498 23.664 94.7963 23.614 95.0493 23.514C95.3055 23.4141 95.5038 23.2751 95.6444 23.097C95.785 22.9189 95.8553 22.7143 95.8553 22.4832C95.8553 22.2676 95.7912 22.0865 95.6632 21.9396C95.5382 21.7928 95.3539 21.6679 95.1102 21.5648C94.8697 21.4617 94.5745 21.368 94.2247 21.2836L93.1797 21.0212C92.3707 20.8244 91.7319 20.5167 91.2633 20.0982C90.7947 19.6796 90.562 19.1157 90.5651 18.4066C90.562 17.8256 90.7166 17.318 91.029 16.8838C91.3445 16.4495 91.7771 16.1106 92.3269 15.867C92.8767 15.6233 93.5015 15.5015 94.2012 15.5015C94.9135 15.5015 95.5351 15.6233 96.0661 15.867C96.6003 16.1106 97.0158 16.4495 97.3125 16.8838C97.6093 17.318 97.7624 17.8209 97.7717 18.3926H95.8272ZM101.187 25.3649C100.728 25.3649 100.319 25.2852 99.9598 25.1259C99.6006 24.9635 99.3163 24.7245 99.107 24.409C98.9009 24.0904 98.7978 23.6937 98.7978 23.2188C98.7978 22.819 98.8712 22.4832 99.018 22.2114C99.1648 21.9396 99.3647 21.721 99.6178 21.5554C99.8708 21.3898 100.158 21.2649 100.48 21.1806C100.805 21.0962 101.145 21.0369 101.501 21.0025C101.92 20.9588 102.257 20.9182 102.514 20.8807C102.77 20.8401 102.956 20.7807 103.071 20.7026C103.187 20.6245 103.245 20.5089 103.245 20.3559V20.3278C103.245 20.031 103.151 19.8014 102.963 19.639C102.779 19.4765 102.517 19.3953 102.176 19.3953C101.817 19.3953 101.531 19.475 101.319 19.6343C101.106 19.7905 100.966 19.9873 100.897 20.2247L99.0508 20.0747C99.1445 19.6374 99.3288 19.2594 99.6037 18.9408C99.8786 18.619 100.233 18.3723 100.667 18.2004C101.105 18.0255 101.611 17.938 102.186 17.938C102.585 17.938 102.968 17.9849 103.334 18.0786C103.702 18.1723 104.029 18.3176 104.313 18.5144C104.6 18.7112 104.827 18.9642 104.992 19.2735C105.158 19.5796 105.241 19.9466 105.241 20.3746V25.229H103.348V24.2309H103.291C103.176 24.4559 103.021 24.6542 102.827 24.826C102.634 24.9947 102.401 25.1275 102.129 25.2243C101.858 25.318 101.544 25.3649 101.187 25.3649ZM101.759 23.9873C102.053 23.9873 102.312 23.9295 102.537 23.8139C102.762 23.6952 102.938 23.5359 103.066 23.336C103.195 23.1361 103.259 22.9096 103.259 22.6565V21.8928C103.196 21.9334 103.11 21.9709 103.001 22.0052C102.895 22.0365 102.774 22.0662 102.64 22.0943C102.506 22.1193 102.371 22.1427 102.237 22.1646C102.103 22.1833 101.981 22.2005 101.872 22.2161C101.637 22.2505 101.433 22.3051 101.258 22.3801C101.083 22.4551 100.947 22.5566 100.85 22.6847C100.753 22.8096 100.705 22.9658 100.705 23.1532C100.705 23.425 100.803 23.6327 101 23.7764C101.2 23.917 101.453 23.9873 101.759 23.9873ZM110.565 18.0318V19.5312H106.123V18.0318H110.565ZM107.139 25.229V17.5116C107.139 16.99 107.241 16.5573 107.444 16.2137C107.65 15.8701 107.931 15.6124 108.287 15.4406C108.644 15.2687 109.048 15.1828 109.501 15.1828C109.807 15.1828 110.087 15.2063 110.34 15.2531C110.596 15.3 110.786 15.3422 110.911 15.3796L110.555 16.8791C110.477 16.8541 110.38 16.8307 110.265 16.8088C110.152 16.7869 110.037 16.776 109.918 16.776C109.624 16.776 109.42 16.8447 109.304 16.9822C109.189 17.1165 109.131 17.3055 109.131 17.5491V25.229H107.139ZM114.711 25.3696C113.971 25.3696 113.334 25.2196 112.8 24.9197C112.269 24.6167 111.859 24.1888 111.572 23.6359C111.285 23.0798 111.141 22.4223 111.141 21.6632C111.141 20.9228 111.285 20.2731 111.572 19.7139C111.859 19.1548 112.264 18.719 112.786 18.4066C113.31 18.0942 113.926 17.938 114.632 17.938C115.107 17.938 115.549 18.0146 115.958 18.1676C116.37 18.3176 116.729 18.5441 117.035 18.8471C117.345 19.1501 117.585 19.5312 117.757 19.9904C117.929 20.4465 118.015 20.9806 118.015 21.5929V22.1411H111.937V20.9041H116.136C116.136 20.6167 116.073 20.3621 115.948 20.1403C115.823 19.9185 115.65 19.7452 115.428 19.6202C115.21 19.4921 114.955 19.4281 114.665 19.4281C114.362 19.4281 114.093 19.4984 113.859 19.639C113.627 19.7764 113.446 19.9623 113.315 20.1966C113.184 20.4277 113.117 20.6854 113.114 20.9697V22.1458C113.114 22.5019 113.179 22.8096 113.31 23.0689C113.445 23.3282 113.634 23.5281 113.877 23.6687C114.121 23.8092 114.41 23.8795 114.744 23.8795C114.966 23.8795 115.169 23.8483 115.353 23.7858C115.538 23.7233 115.695 23.6296 115.827 23.5047C115.958 23.3797 116.058 23.2266 116.126 23.0455L117.973 23.1673C117.879 23.6109 117.687 23.9982 117.396 24.3293C117.109 24.6573 116.737 24.9135 116.281 25.0978C115.828 25.279 115.305 25.3696 114.711 25.3696ZM127.425 18.3926C127.387 18.0146 127.226 17.7209 126.942 17.5116C126.658 17.3023 126.272 17.1977 125.785 17.1977C125.454 17.1977 125.174 17.2446 124.946 17.3383C124.718 17.4289 124.543 17.5554 124.421 17.7178C124.302 17.8803 124.243 18.0646 124.243 18.2707C124.237 18.4425 124.273 18.5925 124.351 18.7206C124.432 18.8486 124.543 18.9595 124.684 19.0532C124.824 19.1438 124.987 19.2235 125.171 19.2922C125.355 19.3578 125.552 19.414 125.761 19.4609L126.623 19.6671C127.042 19.7608 127.426 19.8857 127.776 20.0419C128.126 20.1981 128.429 20.3902 128.685 20.6183C128.941 20.8463 129.14 21.115 129.28 21.4242C129.424 21.7335 129.497 22.088 129.5 22.4879C129.497 23.0751 129.347 23.5843 129.051 24.0154C128.757 24.4434 128.332 24.7761 127.776 25.0135C127.223 25.2477 126.556 25.3649 125.775 25.3649C125.001 25.3649 124.326 25.2462 123.751 25.0088C123.179 24.7714 122.733 24.4199 122.411 23.9545C122.092 23.4859 121.925 22.9065 121.91 22.2161H123.873C123.895 22.5378 123.987 22.8065 124.149 23.022C124.315 23.2345 124.535 23.3953 124.81 23.5047C125.088 23.6109 125.402 23.664 125.752 23.664C126.095 23.664 126.394 23.614 126.647 23.514C126.903 23.4141 127.101 23.2751 127.242 23.097C127.382 22.9189 127.453 22.7143 127.453 22.4832C127.453 22.2676 127.389 22.0865 127.261 21.9396C127.136 21.7928 126.951 21.6679 126.708 21.5648C126.467 21.4617 126.172 21.368 125.822 21.2836L124.777 21.0212C123.968 20.8244 123.329 20.5167 122.861 20.0982C122.392 19.6796 122.159 19.1157 122.163 18.4066C122.159 17.8256 122.314 17.318 122.626 16.8838C122.942 16.4495 123.375 16.1106 123.924 15.867C124.474 15.6233 125.099 15.5015 125.799 15.5015C126.511 15.5015 127.133 15.6233 127.664 15.867C128.198 16.1106 128.613 16.4495 128.91 16.8838C129.207 17.318 129.36 17.8209 129.369 18.3926H127.425ZM133.985 25.3696C133.247 25.3696 132.613 25.2134 132.082 24.901C131.554 24.5855 131.148 24.1482 130.864 23.589C130.583 23.0298 130.442 22.3863 130.442 21.6585C130.442 20.9213 130.584 20.2746 130.869 19.7186C131.156 19.1594 131.564 18.7237 132.091 18.4113C132.619 18.0958 133.247 17.938 133.975 17.938C134.603 17.938 135.153 18.0521 135.625 18.2801C136.096 18.5081 136.47 18.8283 136.744 19.2407C137.019 19.653 137.171 20.1372 137.199 20.6932H135.315C135.262 20.334 135.122 20.045 134.894 19.8264C134.669 19.6046 134.373 19.4937 134.008 19.4937C133.699 19.4937 133.428 19.578 133.197 19.7467C132.969 19.9123 132.791 20.1544 132.663 20.473C132.535 20.7916 132.471 21.1774 132.471 21.6304C132.471 22.0896 132.534 22.4801 132.658 22.8018C132.787 23.1236 132.966 23.3688 133.197 23.5375C133.428 23.7061 133.699 23.7905 134.008 23.7905C134.236 23.7905 134.441 23.7436 134.622 23.6499C134.806 23.5562 134.958 23.4203 135.076 23.2423C135.198 23.0611 135.278 22.844 135.315 22.5909H137.199C137.168 23.1407 137.018 23.6249 136.749 24.0435C136.484 24.459 136.117 24.7839 135.648 25.0181C135.179 25.2524 134.625 25.3696 133.985 25.3696ZM141.634 25.3696C140.906 25.3696 140.277 25.2149 139.745 24.9057C139.218 24.5933 138.81 24.1591 138.523 23.6031C138.235 23.0439 138.091 22.3957 138.091 21.6585C138.091 20.915 138.235 20.2653 138.523 19.7092C138.81 19.1501 139.218 18.7159 139.745 18.4066C140.277 18.0942 140.906 17.938 141.634 17.938C142.362 17.938 142.99 18.0942 143.517 18.4066C144.049 18.7159 144.458 19.1501 144.745 19.7092C145.033 20.2653 145.176 20.915 145.176 21.6585C145.176 22.3957 145.033 23.0439 144.745 23.6031C144.458 24.1591 144.049 24.5933 143.517 24.9057C142.99 25.2149 142.362 25.3696 141.634 25.3696ZM141.643 23.8233C141.974 23.8233 142.251 23.7296 142.473 23.5421C142.694 23.3516 142.861 23.0923 142.974 22.7643C143.09 22.4363 143.147 22.063 143.147 21.6444C143.147 21.2258 143.09 20.8526 142.974 20.5246C142.861 20.1966 142.694 19.9373 142.473 19.7467C142.251 19.5562 141.974 19.4609 141.643 19.4609C141.309 19.4609 141.028 19.5562 140.8 19.7467C140.575 19.9373 140.405 20.1966 140.289 20.5246C140.177 20.8526 140.12 21.2258 140.12 21.6444C140.12 22.063 140.177 22.4363 140.289 22.7643C140.405 23.0923 140.575 23.3516 140.8 23.5421C141.028 23.7296 141.309 23.8233 141.643 23.8233ZM146.379 25.229V18.0318H148.314V19.2875H148.389C148.521 18.8408 148.741 18.5035 149.05 18.2754C149.359 18.0443 149.715 17.9287 150.118 17.9287C150.218 17.9287 150.326 17.9349 150.442 17.9474C150.557 17.9599 150.659 17.9771 150.746 17.999V19.7702C150.653 19.742 150.523 19.717 150.357 19.6952C150.192 19.6733 150.04 19.6624 149.903 19.6624C149.609 19.6624 149.347 19.7264 149.116 19.8545C148.888 19.9794 148.706 20.1544 148.572 20.3793C148.441 20.6042 148.375 20.8635 148.375 21.1571V25.229H146.379ZM154.628 25.3696C153.888 25.3696 153.251 25.2196 152.716 24.9197C152.185 24.6167 151.776 24.1888 151.489 23.6359C151.201 23.0798 151.058 22.4223 151.058 21.6632C151.058 20.9228 151.201 20.2731 151.489 19.7139C151.776 19.1548 152.181 18.719 152.702 18.4066C153.227 18.0942 153.843 17.938 154.549 17.938C155.023 17.938 155.465 18.0146 155.875 18.1676C156.287 18.3176 156.646 18.5441 156.952 18.8471C157.262 19.1501 157.502 19.5312 157.674 19.9904C157.846 20.4465 157.932 20.9806 157.932 21.5929V22.1411H151.854V20.9041H156.053C156.053 20.6167 155.99 20.3621 155.865 20.1403C155.74 19.9185 155.567 19.7452 155.345 19.6202C155.126 19.4921 154.872 19.4281 154.581 19.4281C154.278 19.4281 154.01 19.4984 153.775 19.639C153.544 19.7764 153.363 19.9623 153.232 20.1966C153.101 20.4277 153.034 20.6854 153.03 20.9697V22.1458C153.03 22.5019 153.096 22.8096 153.227 23.0689C153.362 23.3282 153.551 23.5281 153.794 23.6687C154.038 23.8092 154.327 23.8795 154.661 23.8795C154.883 23.8795 155.086 23.8483 155.27 23.7858C155.454 23.7233 155.612 23.6296 155.743 23.5047C155.875 23.3797 155.975 23.2266 156.043 23.0455L157.889 23.1673C157.796 23.6109 157.604 23.9982 157.313 24.3293C157.026 24.6573 156.654 24.9135 156.198 25.0978C155.745 25.279 155.222 25.3696 154.628 25.3696Z" fill="#FCFCFC"/>
<path d="M153.583 88.9032C153.583 106.393 139.405 120.571 121.915 120.571C104.426 120.571 90.2476 106.393 90.2476 88.9032C90.2476 71.4135 104.426 57.2354 121.915 57.2354C139.405 57.2354 153.583 71.4135 153.583 88.9032ZM98.5211 88.9032C98.5211 101.824 108.995 112.298 121.915 112.298C134.836 112.298 145.31 101.824 145.31 88.9032C145.31 75.9829 134.836 65.5089 121.915 65.5089C108.995 65.5089 98.5211 75.9829 98.5211 88.9032Z" fill="#111315"/>
<path d="M149.447 88.9032C151.731 88.9032 153.611 90.7631 153.314 93.0283C152.737 97.4161 151.245 101.65 148.917 105.45C145.865 110.429 141.496 114.468 136.292 117.12C131.089 119.771 125.253 120.932 119.431 120.474C113.609 120.015 108.026 117.956 103.302 114.523C98.5767 111.09 94.8931 106.418 92.6581 101.022C90.4232 95.6263 89.7238 89.7177 90.6374 83.9493C91.5511 78.1809 94.042 72.7776 97.835 68.3366C100.729 64.9482 104.295 62.2208 108.29 60.3166C110.352 59.3336 112.702 60.5467 113.408 62.7196C114.114 64.8924 112.9 67.1953 110.885 68.2725C108.323 69.6421 106.028 71.4827 104.126 73.7098C101.324 76.9906 99.484 80.9822 98.8091 85.2436C98.1342 89.5049 98.6508 93.8699 100.302 97.8559C101.953 101.842 104.674 105.294 108.165 107.83C111.655 110.366 115.779 111.887 120.08 112.225C124.381 112.564 128.692 111.706 132.536 109.748C136.38 107.789 139.608 104.805 141.862 101.127C143.393 98.6295 144.434 95.878 144.945 93.0185C145.347 90.7695 147.162 88.9032 149.447 88.9032Z" fill="#38D477"/>
<path d="M111.956 96.5698L117.684 85.2342V85.1397H111.011V82.7511H120.707V85.1734L114.972 96.5698H111.956ZM127.831 96.8735C126.67 96.869 125.672 96.5833 124.835 96.0165C124.003 95.4498 123.362 94.6288 122.912 93.5537C122.466 92.4786 122.246 91.1854 122.251 89.674C122.251 88.167 122.473 86.8828 122.919 85.8212C123.368 84.7596 124.009 83.9521 124.842 83.3989C125.678 82.8411 126.675 82.5622 127.831 82.5622C128.987 82.5622 129.981 82.8411 130.813 83.3989C131.65 83.9566 132.293 84.7663 132.743 85.8279C133.193 86.885 133.415 88.167 133.411 89.674C133.411 91.1899 133.186 92.4854 132.736 93.5605C132.291 94.6356 131.652 95.4565 130.82 96.0233C129.988 96.5901 128.991 96.8735 127.831 96.8735ZM127.831 94.4511C128.622 94.4511 129.254 94.053 129.727 93.2568C130.199 92.4606 130.433 91.2664 130.428 89.674C130.428 88.6259 130.32 87.7532 130.105 87.056C129.893 86.3587 129.592 85.8347 129.2 85.4838C128.814 85.1329 128.357 84.9575 127.831 84.9575C127.043 84.9575 126.414 85.3511 125.941 86.1383C125.469 86.9255 125.231 88.1041 125.226 89.674C125.226 90.7356 125.332 91.6217 125.543 92.3324C125.759 93.0387 126.063 93.5695 126.454 93.9248C126.846 94.2757 127.304 94.4511 127.831 94.4511Z" fill="#EDF1F5"/>
<defs>
<filter id="filter0_i_34734_35833" x="207.243" y="7.97412" width="18.4731" height="21.1119" filterUnits="userSpaceOnUse" color-interpolation-filters="sRGB">
<feFlood flood-opacity="0" result="BackgroundImageFix"/>
<feBlend mode="normal" in="SourceGraphic" in2="BackgroundImageFix" result="shape"/>
<feColorMatrix in="SourceAlpha" type="matrix" values="0 0 0 0 0 0 0 0 0 0 0 0 0 0 0 0 0 0 127 0" result="hardAlpha"/>
<feOffset dy="3.51865"/>
<feGaussianBlur stdDeviation="1.75933"/>
<feComposite in2="hardAlpha" operator="arithmetic" k2="-1" k3="1"/>
<feColorMatrix type="matrix" values="0 0 0 0 0 0 0 0 0 0 0 0 0 0 0 0 0 0 0.25 0"/>
<feBlend mode="normal" in2="shape" result="effect1_innerShadow_34734_35833"/>
</filter>
</defs>
</svg>
