<svg width="728" height="56" viewBox="0 0 728 56" fill="none" xmlns="http://www.w3.org/2000/svg">
<path d="M0.650146 52.9881C0.650146 52.2596 0.939551 51.5609 1.4547 51.0457C1.96983 50.5306 2.66852 50.2412 3.39704 50.2412C4.12557 50.2412 4.82425 50.5306 5.33939 51.0457C5.85454 51.5609 6.14394 52.2596 6.14394 52.9881C6.14394 53.7166 5.85454 54.4154 5.33939 54.9305C4.82425 55.4456 4.12557 55.735 3.39704 55.735C2.66852 55.735 1.96983 55.4456 1.4547 54.9305C0.939551 54.4154 0.650146 53.7166 0.650146 52.9881ZM361.135 3.55012C361.135 2.8216 361.425 2.12291 361.94 1.60778C362.455 1.09263 363.154 0.803223 363.882 0.803223C364.61 0.803223 365.31 1.09263 365.825 1.60778C366.339 2.12291 366.629 2.8216 366.629 3.55012C366.629 4.27865 366.339 4.97732 365.825 5.49247C365.31 6.00762 364.61 6.29702 363.882 6.29702C363.154 6.29702 362.455 6.00762 361.94 5.49247C361.425 4.97732 361.135 4.27865 361.135 3.55012ZM2.88207 52.9881V44.7485H3.91202V52.9881H2.88207ZM19.8764 27.7541H347.403V28.784H19.8764V27.7541ZM363.367 11.7898V3.55012H364.397V11.7898H363.367ZM347.403 27.7541C356.22 27.7541 363.367 20.6062 363.367 11.7898H364.397C364.397 21.1758 356.789 28.784 347.403 28.784V27.7541ZM2.88207 44.7485C2.88207 35.3624 10.4904 27.7541 19.8764 27.7541V28.784C11.0599 28.784 3.91202 35.932 3.91202 44.7485H2.88207Z" fill="white" fill-opacity="0.05"/>
<path d="M727.115 52.9881C727.115 52.2596 726.825 51.5609 726.311 51.0457C725.795 50.5306 725.096 50.2412 724.368 50.2412C723.64 50.2412 722.94 50.5306 722.425 51.0457C721.911 51.5609 721.621 52.2596 721.621 52.9881C721.621 53.7166 721.911 54.4154 722.425 54.9305C722.94 55.4456 723.64 55.735 724.368 55.735C725.096 55.735 725.795 55.4456 726.311 54.9305C726.825 54.4154 727.115 53.7166 727.115 52.9881ZM366.629 3.55012C366.629 2.8216 366.341 2.12291 365.825 1.60778C365.31 1.09263 364.611 0.803223 363.882 0.803223C363.154 0.803223 362.455 1.09263 361.941 1.60778C361.425 2.12291 361.135 2.8216 361.135 3.55012C361.135 4.27865 361.425 4.97732 361.941 5.49247C362.455 6.00762 363.154 6.29702 363.882 6.29702C364.611 6.29702 365.31 6.00762 365.825 5.49247C366.341 4.97732 366.629 4.27865 366.629 3.55012ZM724.883 52.9881V44.7485H723.853V52.9881H724.883ZM707.889 27.7541H380.361V28.784H707.889V27.7541ZM364.398 11.7898V3.55012H363.367V11.7898H364.398ZM380.361 27.7541C371.546 27.7541 364.398 20.6062 364.398 11.7898H363.367C363.367 21.1758 370.976 28.784 380.361 28.784V27.7541ZM724.883 44.7485C724.883 35.3624 717.274 27.7541 707.889 27.7541V28.784C716.705 28.784 723.853 35.932 723.853 44.7485H724.883ZM363.882 50.2412C363.154 50.2412 362.455 50.5306 361.941 51.0457C361.425 51.5609 361.135 52.2596 361.135 52.9881C361.135 53.7166 361.425 54.4154 361.941 54.9305C362.455 55.4456 363.154 55.735 363.882 55.735C364.611 55.735 365.31 55.4456 365.825 54.9305C366.341 54.4154 366.629 53.7166 366.629 52.9881C366.629 52.2596 366.341 51.5609 365.825 51.0457C365.31 50.5306 364.611 50.2412 363.882 50.2412ZM363.367 36.5088V52.9881H364.398V36.5088H363.367Z" fill="white" fill-opacity="0.05"/>
</svg>
