<svg width="91" height="91" viewBox="0 0 91 91" fill="none" xmlns="http://www.w3.org/2000/svg">
<rect x="0.5" y="0.5" width="90" height="90" rx="23.5" stroke="#333333" stroke-dasharray="43 34"/>
<g filter="url(#filter0_i_34414_35455)">
<g clip-path="url(#paint0_diamond_34414_35455_clip_path)" data-figma-skip-parse="true"><g transform="matrix(0 0.0275 -0.0275 0 45.5 45.5)"><rect x="0" y="0" width="1036.36" height="1036.36" fill="url(#paint0_diamond_34414_35455)" opacity="1" shape-rendering="crispEdges"/><rect x="0" y="0" width="1036.36" height="1036.36" transform="scale(1 -1)" fill="url(#paint0_diamond_34414_35455)" opacity="1" shape-rendering="crispEdges"/><rect x="0" y="0" width="1036.36" height="1036.36" transform="scale(-1 1)" fill="url(#paint0_diamond_34414_35455)" opacity="1" shape-rendering="crispEdges"/><rect x="0" y="0" width="1036.36" height="1036.36" transform="scale(-1)" fill="url(#paint0_diamond_34414_35455)" opacity="1" shape-rendering="crispEdges"/></g></g><rect x="18" y="18" width="55" height="55" rx="15" data-figma-gradient-fill="{&#34;type&#34;:&#34;GRADIENT_DIAMOND&#34;,&#34;stops&#34;:[{&#34;color&#34;:{&#34;r&#34;:0.85098040103912354,&#34;g&#34;:0.85098040103912354,&#34;b&#34;:0.85098040103912354,&#34;a&#34;:0.0},&#34;position&#34;:0.033653847873210907},{&#34;color&#34;:{&#34;r&#34;:0.45098039507865906,&#34;g&#34;:0.45098039507865906,&#34;b&#34;:0.45098039507865906,&#34;a&#34;:0.23000000417232513},&#34;position&#34;:1.0}],&#34;stopsVar&#34;:[{&#34;color&#34;:{&#34;r&#34;:0.85098040103912354,&#34;g&#34;:0.85098040103912354,&#34;b&#34;:0.85098040103912354,&#34;a&#34;:0.0},&#34;position&#34;:0.033653847873210907},{&#34;color&#34;:{&#34;r&#34;:0.45098039507865906,&#34;g&#34;:0.45098039507865906,&#34;b&#34;:0.45098039507865906,&#34;a&#34;:0.23000000417232513},&#34;position&#34;:1.0}],&#34;transform&#34;:{&#34;m00&#34;:3.3677788578441014e-15,&#34;m01&#34;:-55.0,&#34;m02&#34;:73.0,&#34;m10&#34;:55.0,&#34;m11&#34;:3.3677788578441014e-15,&#34;m12&#34;:18.0},&#34;opacity&#34;:1.0,&#34;blendMode&#34;:&#34;NORMAL&#34;,&#34;visible&#34;:true}"/>
</g>
<rect x="18.5" y="18.5" width="54" height="54" rx="14.5" stroke="#C4C0C0" stroke-opacity="0.25"/>
<rect x="12.5" y="12.5" width="66" height="66" rx="14.5" stroke="#333333"/>
<path d="M45 39.0709C41.9343 39.5094 39.5094 41.9343 39.0709 45H41V47H39.0709C39.5094 50.0657 41.9343 52.4906 45 52.9291V51H47V52.9291C50.0657 52.4906 52.4906 50.0657 52.9291 47H51V45H52.9291C52.4906 41.9343 50.0657 39.5094 47 39.0709V41H45V39.0709ZM37.0549 45C37.5161 40.8284 40.8284 37.5161 45 37.0549V35H47V37.0549C51.1716 37.5161 54.4839 40.8284 54.9451 45H57V47H54.9451C54.4839 51.1716 51.1716 54.4839 47 54.9451V57H45V54.9451C40.8284 54.4839 37.5161 51.1716 37.0549 47H35V45H37.0549ZM48 46C48 47.1046 47.1046 48 46 48C44.8954 48 44 47.1046 44 46C44 44.8954 44.8954 44 46 44C47.1046 44 48 44.8954 48 46Z" fill="#8AFD57"/>
<defs>
<filter id="filter0_i_34414_35455" x="18" y="18" width="55" height="55" filterUnits="userSpaceOnUse" color-interpolation-filters="sRGB">
<feFlood flood-opacity="0" result="BackgroundImageFix"/>
<feBlend mode="normal" in="SourceGraphic" in2="BackgroundImageFix" result="shape"/>
<feColorMatrix in="SourceAlpha" type="matrix" values="0 0 0 0 0 0 0 0 0 0 0 0 0 0 0 0 0 0 127 0" result="hardAlpha"/>
<feOffset/>
<feGaussianBlur stdDeviation="2.5"/>
<feComposite in2="hardAlpha" operator="arithmetic" k2="-1" k3="1"/>
<feColorMatrix type="matrix" values="0 0 0 0 0.541176 0 0 0 0 0.992157 0 0 0 0 0.341176 0 0 0 0.1 0"/>
<feBlend mode="normal" in2="shape" result="effect1_innerShadow_34414_35455"/>
</filter>
<clipPath id="paint0_diamond_34414_35455_clip_path"><rect x="18" y="18" width="55" height="55" rx="15"/></clipPath><linearGradient id="paint0_diamond_34414_35455" x1="0" y1="0" x2="500" y2="500" gradientUnits="userSpaceOnUse">
<stop offset="0.0336538" stop-color="#D9D9D9" stop-opacity="0"/>
<stop offset="1" stop-color="#737373" stop-opacity="0.23"/>
</linearGradient>
</defs>
</svg>
