<svg width="121" height="121" viewBox="0 0 121 121" fill="none" xmlns="http://www.w3.org/2000/svg">
<g filter="url(#filter0_d_34821_595)">
<rect x="33" y="29" width="55" height="55" rx="15" fill="white"/>
</g>
<g filter="url(#filter1_dd_34821_595)">
<rect x="27.5" y="23.5" width="66" height="66" rx="14.5" stroke="#EEE7E7" shape-rendering="crispEdges"/>
</g>
<path d="M54.7502 48.5H53.7173L52.25 48.8932V50.4458L53.25 50.1778L53.2502 53.5H52V55H56V53.5H54.7502V48.5ZM59 49H70V51H59V49ZM59 56H70V58H59V56ZM59 63H70V65H59V63ZM51.875 60.625C51.875 59.4514 52.8264 58.5 54 58.5C55.1736 58.5 56.125 59.4514 56.125 60.625C56.125 61.1106 55.9618 61.5587 55.6875 61.9167L55.6827 61.9229L54.3159 63.5H56V65H52.0001L51.9996 63.8786L54.4717 61.035C54.5673 60.9252 54.625 60.7821 54.625 60.625C54.625 60.2798 54.3452 60 54 60C53.6738 60 53.4057 60.2501 53.3775 60.5688L53.3651 60.875H51.875V60.625Z" fill="#8AFD57"/>
<rect x="15.5" y="11.5" width="90" height="90" rx="23.5" stroke="#E4E4E4" stroke-dasharray="43 34"/>
<defs>
<filter id="filter0_d_34821_595" x="6" y="6" width="109" height="109" filterUnits="userSpaceOnUse" color-interpolation-filters="sRGB">
<feFlood flood-opacity="0" result="BackgroundImageFix"/>
<feColorMatrix in="SourceAlpha" type="matrix" values="0 0 0 0 0 0 0 0 0 0 0 0 0 0 0 0 0 0 127 0" result="hardAlpha"/>
<feOffset dy="4"/>
<feGaussianBlur stdDeviation="13.5"/>
<feComposite in2="hardAlpha" operator="out"/>
<feColorMatrix type="matrix" values="0 0 0 0 0.541176 0 0 0 0 0.992157 0 0 0 0 0.341176 0 0 0 0.26 0"/>
<feBlend mode="normal" in2="BackgroundImageFix" result="effect1_dropShadow_34821_595"/>
<feBlend mode="normal" in="SourceGraphic" in2="effect1_dropShadow_34821_595" result="shape"/>
</filter>
<filter id="filter1_dd_34821_595" x="0" y="0" width="121" height="121" filterUnits="userSpaceOnUse" color-interpolation-filters="sRGB">
<feFlood flood-opacity="0" result="BackgroundImageFix"/>
<feColorMatrix in="SourceAlpha" type="matrix" values="0 0 0 0 0 0 0 0 0 0 0 0 0 0 0 0 0 0 127 0" result="hardAlpha"/>
<feOffset dy="4"/>
<feGaussianBlur stdDeviation="13.5"/>
<feComposite in2="hardAlpha" operator="out"/>
<feColorMatrix type="matrix" values="0 0 0 0 0.541176 0 0 0 0 0.992157 0 0 0 0 0.341176 0 0 0 0.26 0"/>
<feBlend mode="normal" in2="BackgroundImageFix" result="effect1_dropShadow_34821_595"/>
<feColorMatrix in="SourceAlpha" type="matrix" values="0 0 0 0 0 0 0 0 0 0 0 0 0 0 0 0 0 0 127 0" result="hardAlpha"/>
<feOffset/>
<feGaussianBlur stdDeviation="2"/>
<feComposite in2="hardAlpha" operator="out"/>
<feColorMatrix type="matrix" values="0 0 0 0 0.541176 0 0 0 0 0.992157 0 0 0 0 0.341176 0 0 0 0.43 0"/>
<feBlend mode="normal" in2="effect1_dropShadow_34821_595" result="effect2_dropShadow_34821_595"/>
<feBlend mode="normal" in="SourceGraphic" in2="effect2_dropShadow_34821_595" result="shape"/>
</filter>
</defs>
</svg>
