<svg width="18" height="18" viewBox="0 0 18 18" fill="none" xmlns="http://www.w3.org/2000/svg">
<path d="M3.9979 11.9466C3.83625 11.2436 3.75041 10.5078 3.75041 9.74996C3.75041 5.93402 5.92739 2.67273 9.00038 1.36353C12.0734 2.67273 14.2504 5.93402 14.2504 9.74996C14.2504 10.5078 14.1646 11.2436 14.003 11.9466L15.518 13.2934C15.6528 13.4132 15.6832 13.612 15.5904 13.7667L13.7475 16.8381C13.6409 17.0157 13.4106 17.0733 13.233 16.9668C13.2067 16.951 13.1825 16.932 13.1608 16.9104L11.4701 15.2196C11.3294 15.079 11.1386 15 10.9397 15H7.06107C6.86216 15 6.67139 15.079 6.53074 15.2196L4.84003 16.9104C4.69358 17.0568 4.45614 17.0568 4.3097 16.9104C4.28801 16.8887 4.26908 16.8645 4.2533 16.8381L2.41039 13.7667C2.31761 13.612 2.34803 13.4132 2.48282 13.2934L3.9979 11.9466ZM9.00038 9.74996C9.82883 9.74996 10.5004 9.07841 10.5004 8.24996C10.5004 7.42156 9.82883 6.74999 9.00038 6.74999C8.172 6.74999 7.50038 7.42156 7.50038 8.24996C7.50038 9.07841 8.172 9.74996 9.00038 9.74996Z" fill="black"/>
</svg>
