<svg width="18" height="18" viewBox="0 0 18 18" fill="none" xmlns="http://www.w3.org/2000/svg">
<circle cx="9" cy="9" r="9" fill="#D9D9D9"/>
<path d="M11.9044 7.70953L11.8222 7.89809C11.7621 8.03614 11.5712 8.03614 11.511 7.89809L11.4288 7.70953C11.2823 7.37332 11.0185 7.10563 10.6892 6.95919L10.436 6.84657C10.2991 6.78567 10.2991 6.58643 10.436 6.52554L10.675 6.41921C11.0128 6.269 11.2814 5.99141 11.4253 5.64377L11.5097 5.44001C11.5686 5.29799 11.7647 5.29799 11.8235 5.44001L11.9079 5.64377C12.0519 5.99141 12.3205 6.269 12.6582 6.41921L12.8973 6.52554C13.0342 6.58643 13.0342 6.78567 12.8973 6.84657L12.6441 6.95919C12.3148 7.10563 12.0509 7.37332 11.9044 7.70953ZM12.3333 11.6668V8.55303C12.1248 8.62673 11.9004 8.66683 11.6666 8.66683C11.3023 8.66683 10.9608 8.56943 10.6666 8.39926V10.6668H9.99996V8.3335H10.5607C10.0218 7.97519 9.66663 7.36249 9.66663 6.66683C9.66663 6.43307 9.70673 6.20868 9.78043 6.00016H5.99996C5.81587 6.00016 5.66663 6.1494 5.66663 6.3335V11.6668C5.66663 11.8509 5.81587 12.0002 5.99996 12.0002H12C12.1841 12.0002 12.3333 11.8509 12.3333 11.6668ZM7.33329 9.3335H7.99996V10.6668H7.33329V9.3335ZM8.66663 7.3335H9.33329V10.6668H8.66663V7.3335Z" fill="#030901"/>
</svg>
