<svg width="43" height="43" viewBox="0 0 43 43" fill="none" xmlns="http://www.w3.org/2000/svg">
<g filter="url(#filter0_d_34414_35514)">
<rect x="5" y="5.1665" width="32.6667" height="32.6667" rx="9.33333" fill="#FDFFFA"/>
</g>
<path d="M21.9166 26.2152C24.9432 26.2152 27.5898 27.5168 29.0294 29.4585L27.5072 30.1785C26.3357 28.7899 24.2697 27.8679 21.9166 27.8679C19.5636 27.8679 17.4976 28.7899 16.326 30.1785L14.8044 29.4578C16.2442 27.5165 18.8904 26.2152 21.9166 26.2152ZM21.9166 13.8193C24.1986 13.8193 26.0486 15.6693 26.0486 17.9513V20.4304C26.0486 22.7124 24.1986 24.5624 21.9166 24.5624C19.6346 24.5624 17.7847 22.7124 17.7847 20.4304V17.9513C17.7847 15.6693 19.6346 13.8193 21.9166 13.8193Z" fill="black"/>
<defs>
<filter id="filter0_d_34414_35514" x="0.333333" y="0.499837" width="42" height="41.9998" filterUnits="userSpaceOnUse" color-interpolation-filters="sRGB">
<feFlood flood-opacity="0" result="BackgroundImageFix"/>
<feColorMatrix in="SourceAlpha" type="matrix" values="0 0 0 0 0 0 0 0 0 0 0 0 0 0 0 0 0 0 127 0" result="hardAlpha"/>
<feOffset/>
<feGaussianBlur stdDeviation="2.33333"/>
<feComposite in2="hardAlpha" operator="out"/>
<feColorMatrix type="matrix" values="0 0 0 0 0 0 0 0 0 0 0 0 0 0 0 0 0 0 0.25 0"/>
<feBlend mode="normal" in2="BackgroundImageFix" result="effect1_dropShadow_34414_35514"/>
<feBlend mode="normal" in="SourceGraphic" in2="effect1_dropShadow_34414_35514" result="shape"/>
</filter>
</defs>
</svg>
