<svg width="498" height="311" viewBox="0 0 498 311" fill="none" xmlns="http://www.w3.org/2000/svg">
<rect x="0.369036" y="0.369036" width="497.202" height="309.872" rx="11.4401" fill="#181A1C"/>
<rect x="0.369036" y="0.369036" width="497.202" height="309.872" rx="11.4401" stroke="#282A2C" stroke-width="0.738072"/>
<rect x="259.492" y="206.383" width="2.46723" height="67.2465" fill="#00E966"/>
<rect x="479.838" y="206.383" width="2.46723" height="67.2465" fill="#00E966"/>
<rect x="254.744" y="255.33" width="2.96068" height="18.2916" fill="#00E966"/>
<rect x="475.071" y="255.33" width="2.96068" height="18.2916" fill="#00E966"/>
<rect x="249.981" y="240.698" width="2.96068" height="32.9249" fill="#E9223A"/>
<rect x="470.323" y="240.698" width="2.96068" height="32.9249" fill="#E9223A"/>
<rect x="245.72" y="231.322" width="2.46723" height="42.2973" fill="#00E966"/>
<rect x="466.057" y="231.322" width="2.46723" height="42.2973" fill="#00E966"/>
<rect x="240.972" y="257.174" width="2.96068" height="16.4624" fill="#00E966"/>
<rect x="461.304" y="257.174" width="2.96068" height="16.4624" fill="#00E966"/>
<rect x="236.702" y="233.961" width="2.46723" height="39.671" fill="#00E966"/>
<rect x="457.048" y="233.961" width="2.46723" height="39.671" fill="#00E966"/>
<rect x="231.954" y="266.309" width="2.96068" height="7.31664" fill="#00E966"/>
<rect x="452.291" y="266.309" width="2.96068" height="7.31664" fill="#00E966"/>
<rect x="227.196" y="225.751" width="2.96068" height="47.8773" fill="#E9223A"/>
<rect x="447.538" y="225.751" width="2.96068" height="47.8773" fill="#E9223A"/>
<rect x="222.448" y="243.147" width="2.96068" height="30.4801" fill="#E9223A"/>
<rect x="442.78" y="243.147" width="2.96068" height="30.4801" fill="#E9223A"/>
<rect x="218.173" y="230.595" width="2.46723" height="43.0312" fill="#00E966"/>
<rect x="438.519" y="230.595" width="2.46723" height="43.0312" fill="#00E966"/>
<rect x="213.43" y="199.576" width="2.96068" height="74.0491" fill="#E9223A"/>
<rect x="433.771" y="199.576" width="2.96068" height="74.0491" fill="#E9223A"/>
<rect x="209.164" y="217.669" width="2.46723" height="55.9513" fill="#00E966"/>
<rect x="429.501" y="217.669" width="2.46723" height="55.9513" fill="#00E966"/>
<rect x="204.416" y="245.093" width="2.96068" height="28.5307" fill="#00E966"/>
<rect x="424.748" y="245.093" width="2.96068" height="28.5307" fill="#00E966"/>
<rect x="199.649" y="159.432" width="2.96068" height="114.197" fill="#00E966"/>
<rect x="419.985" y="159.432" width="2.96068" height="114.197" fill="#00E966"/>
<rect x="194.896" y="225.751" width="2.96068" height="47.8777" fill="#00E966"/>
<rect x="415.247" y="225.751" width="2.96068" height="47.8777" fill="#00E966"/>
<rect x="190.625" y="196.512" width="2.46723" height="77.1116" fill="#00E966"/>
<rect x="410.972" y="196.512" width="2.46723" height="77.1116" fill="#00E966"/>
<rect x="185.882" y="211.78" width="2.96068" height="61.8494" fill="#00E966"/>
<rect x="406.224" y="211.78" width="2.96068" height="61.8494" fill="#00E966"/>
<rect x="181.129" y="238.816" width="2.96068" height="34.8107" fill="#00E966"/>
<rect x="401.476" y="238.816" width="2.96068" height="34.8107" fill="#00E966"/>
<rect x="176.367" y="191.941" width="2.96068" height="81.6911" fill="#00E966"/>
<rect x="396.708" y="191.941" width="2.96068" height="81.6911" fill="#00E966"/>
<rect x="172.115" y="211.78" width="2.46723" height="61.8479" fill="#E9223A"/>
<rect x="392.452" y="211.78" width="2.46723" height="61.8479" fill="#E9223A"/>
<rect x="167.845" y="197.073" width="2.46723" height="76.5563" fill="#00E966"/>
<rect x="388.191" y="197.073" width="2.46723" height="76.5563" fill="#00E966"/>
<rect x="163.097" y="171.77" width="2.96068" height="101.861" fill="#00E966"/>
<rect x="383.429" y="171.77" width="2.96068" height="101.861" fill="#00E966"/>
<rect x="158.334" y="203.348" width="2.96068" height="70.2808" fill="#00E966"/>
<rect x="378.676" y="203.35" width="2.96068" height="70.2808" fill="#00E966"/>
<rect x="153.591" y="109.002" width="2.96068" height="164.624" fill="#00E966"/>
<rect x="373.928" y="109.002" width="2.96068" height="164.624" fill="#00E966"/>
<rect x="148.824" y="176.669" width="2.96068" height="96.9556" fill="#00E966"/>
<rect x="369.17" y="176.669" width="2.96068" height="96.9556" fill="#00E966"/>
<rect x="144.568" y="199.969" width="2.46723" height="73.6529" fill="#00E966"/>
<rect x="364.905" y="199.969" width="2.46723" height="73.6529" fill="#00E966"/>
<rect x="139.815" y="203.35" width="2.96068" height="70.2808" fill="#00E966"/>
<rect x="360.161" y="203.35" width="2.96068" height="70.2808" fill="#00E966"/>
<rect x="135.55" y="176.669" width="2.46723" height="96.9556" fill="#00E966"/>
<rect x="355.891" y="176.669" width="2.46723" height="96.9556" fill="#00E966"/>
<rect x="130.801" y="208.245" width="2.96068" height="65.3743" fill="#E9223A"/>
<rect x="351.138" y="208.245" width="2.96068" height="65.3743" fill="#E9223A"/>
<rect x="126.039" y="231.553" width="2.96068" height="42.0732" fill="#00E966"/>
<rect x="346.38" y="231.553" width="2.96068" height="42.0732" fill="#00E966"/>
<rect x="121.286" y="203.35" width="2.96068" height="70.2808" fill="#00E966"/>
<rect x="341.623" y="203.35" width="2.96068" height="70.2808" fill="#00E966"/>
<rect x="117.04" y="190.156" width="2.46723" height="83.465" fill="#00E966"/>
<rect x="337.357" y="190.156" width="2.46723" height="83.465" fill="#00E966"/>
<rect x="112.268" y="211.78" width="2.96068" height="61.8479" fill="#00E966"/>
<rect x="332.614" y="211.78" width="2.96068" height="61.8479" fill="#00E966"/>
<rect x="108.017" y="191.941" width="2.46723" height="81.6888" fill="#00E966"/>
<rect x="328.353" y="191.941" width="2.46723" height="81.6888" fill="#00E966"/>
<rect x="103.254" y="227.897" width="2.96068" height="45.729" fill="#E9223A"/>
<rect x="323.591" y="227.897" width="2.96068" height="45.729" fill="#E9223A"/>
<rect x="98.998" y="197.073" width="2.46723" height="76.5563" fill="#E9223A"/>
<rect x="319.344" y="197.073" width="2.46723" height="76.5563" fill="#E9223A"/>
<rect x="94.2358" y="199.969" width="2.96068" height="73.6544" fill="#00E966"/>
<rect x="314.572" y="199.969" width="2.96068" height="73.6544" fill="#00E966"/>
<rect x="89.478" y="176.669" width="2.96068" height="96.9546" fill="#00E966"/>
<rect x="309.829" y="176.669" width="2.96068" height="96.9546" fill="#00E966"/>
<rect x="84.7344" y="211.78" width="2.96068" height="61.8479" fill="#00E966"/>
<rect x="305.066" y="211.78" width="2.96068" height="61.8479" fill="#00E966"/>
<rect x="79.9722" y="156.024" width="2.96068" height="117.599" fill="#00E966"/>
<rect x="300.318" y="156.024" width="2.96068" height="117.599" fill="#00E966"/>
<rect x="75.7163" y="190.156" width="2.46723" height="83.465" fill="#00E966"/>
<rect x="296.043" y="190.156" width="2.46723" height="83.465" fill="#00E966"/>
<rect x="70.9541" y="165.418" width="2.96068" height="108.215" fill="#00E966"/>
<rect x="291.295" y="165.418" width="2.96068" height="108.215" fill="#00E966"/>
<rect x="66.21" y="197.073" width="2.96068" height="76.5563" fill="#00E966"/>
<rect x="286.542" y="197.073" width="2.96068" height="76.5563" fill="#00E966"/>
<rect x="61.9351" y="211.78" width="2.46723" height="61.8479" fill="#00E966"/>
<rect x="282.272" y="211.78" width="2.46723" height="61.8479" fill="#00E966"/>
<rect x="57.187" y="231.553" width="2.96068" height="42.0732" fill="#00E966"/>
<rect x="277.533" y="231.553" width="2.96068" height="42.0732" fill="#00E966"/>
<rect x="52.917" y="165.418" width="2.46723" height="108.215" fill="#00E966"/>
<rect x="39.1553" y="165.418" width="2.46723" height="108.215" fill="#00E966"/>
<rect x="25.3789" y="165.418" width="2.46723" height="108.215" fill="#00E966"/>
<rect x="273.258" y="165.418" width="2.46723" height="108.215" fill="#00E966"/>
<rect x="48.1685" y="269.963" width="2.96068" height="3.65832" fill="#00E966"/>
<rect x="34.3975" y="269.963" width="2.96068" height="3.65832" fill="#00E966"/>
<rect x="20.6309" y="269.963" width="2.96068" height="3.65832" fill="#00E966"/>
<rect x="268.515" y="269.963" width="2.96068" height="3.65832" fill="#00E966"/>
<rect x="43.4204" y="255.33" width="2.96068" height="18.2916" fill="#00E966"/>
<rect x="29.6489" y="255.33" width="2.96068" height="18.2916" fill="#00E966"/>
<rect x="15.873" y="255.33" width="2.96068" height="18.2916" fill="#00E966"/>
<rect x="263.748" y="255.33" width="2.96068" height="18.2916" fill="#00E966"/>
<path d="M74.6356 292.233C74.0433 292.233 73.5389 292.071 73.1222 291.749C72.7055 291.424 72.3871 290.954 72.167 290.338C71.9469 289.72 71.8368 288.973 71.8368 288.097C71.8368 287.227 71.9469 286.484 72.167 285.869C72.3898 285.25 72.7095 284.778 73.1261 284.454C73.5454 284.126 74.0486 283.962 74.6356 283.962C75.2226 283.962 75.7244 284.126 76.1411 284.454C76.5604 284.778 76.8801 285.25 77.1002 285.869C77.3229 286.484 77.4343 287.227 77.4343 288.097C77.4343 288.973 77.3242 289.72 77.1041 290.338C76.884 290.954 76.5656 291.424 76.1489 291.749C75.7323 292.071 75.2278 292.233 74.6356 292.233ZM74.6356 291.368C75.2226 291.368 75.6785 291.085 76.0035 290.519C76.3284 289.953 76.4909 289.146 76.4909 288.097C76.4909 287.4 76.4162 286.807 76.2669 286.317C76.1201 285.827 75.9078 285.453 75.6301 285.196C75.3549 284.94 75.0234 284.811 74.6356 284.811C74.0538 284.811 73.5991 285.098 73.2716 285.672C72.944 286.243 72.7802 287.052 72.7802 288.097C72.7802 288.794 72.8536 289.387 73.0003 289.874C73.1471 290.362 73.358 290.732 73.6332 290.987C73.911 291.241 74.2451 291.368 74.6356 291.368ZM78.7393 290.472V289.67L82.2771 284.072H82.8588V285.314H82.4658L79.7928 289.544V289.607H84.557V290.472H78.7393ZM82.5287 292.123V290.228V289.854V284.072H83.4563V292.123H82.5287ZM86.7219 291.093C86.5279 291.093 86.3615 291.023 86.2226 290.884C86.0838 290.745 86.0143 290.579 86.0143 290.385C86.0143 290.191 86.0838 290.025 86.2226 289.886C86.3615 289.747 86.5279 289.678 86.7219 289.678C86.9158 289.678 87.0822 289.747 87.2211 289.886C87.36 290.025 87.4294 290.191 87.4294 290.385C87.4294 290.514 87.3966 290.631 87.3311 290.739C87.2682 290.846 87.1831 290.933 87.0756 290.998C86.9708 291.061 86.8529 291.093 86.7219 291.093ZM86.7219 287.02C86.5279 287.02 86.3615 286.951 86.2226 286.812C86.0838 286.673 86.0143 286.507 86.0143 286.313C86.0143 286.119 86.0838 285.952 86.2226 285.814C86.3615 285.675 86.5279 285.605 86.7219 285.605C86.9158 285.605 87.0822 285.675 87.2211 285.814C87.36 285.952 87.4294 286.119 87.4294 286.313C87.4294 286.441 87.3966 286.559 87.3311 286.667C87.2682 286.774 87.1831 286.86 87.0756 286.926C86.9708 286.989 86.8529 287.02 86.7219 287.02ZM91.7042 292.233C91.1119 292.233 90.6075 292.071 90.1908 291.749C89.7741 291.424 89.4557 290.954 89.2356 290.338C89.0155 289.72 88.9054 288.973 88.9054 288.097C88.9054 287.227 89.0155 286.484 89.2356 285.869C89.4584 285.25 89.7781 284.778 90.1947 284.454C90.614 284.126 91.1172 283.962 91.7042 283.962C92.2912 283.962 92.793 284.126 93.2097 284.454C93.629 284.778 93.9487 285.25 94.1688 285.869C94.3915 286.484 94.5029 287.227 94.5029 288.097C94.5029 288.973 94.3929 289.72 94.1727 290.338C93.9526 290.954 93.6342 291.424 93.2175 291.749C92.8009 292.071 92.2964 292.233 91.7042 292.233ZM91.7042 291.368C92.2912 291.368 92.7472 291.085 93.0721 290.519C93.397 289.953 93.5595 289.146 93.5595 288.097C93.5595 287.4 93.4848 286.807 93.3355 286.317C93.1887 285.827 92.9765 285.453 92.6987 285.196C92.4235 284.94 92.092 284.811 91.7042 284.811C91.1224 284.811 90.6677 285.098 90.3402 285.672C90.0126 286.243 89.8488 287.052 89.8488 288.097C89.8488 288.794 89.9222 289.387 90.069 289.874C90.2157 290.362 90.4267 290.732 90.7018 290.987C90.9796 291.241 91.3137 291.368 91.7042 291.368ZM98.6224 292.233C98.0302 292.233 97.5257 292.071 97.1091 291.749C96.6924 291.424 96.374 290.954 96.1539 290.338C95.9337 289.72 95.8237 288.973 95.8237 288.097C95.8237 287.227 95.9337 286.484 96.1539 285.869C96.3766 285.25 96.6963 284.778 97.113 284.454C97.5323 284.126 98.0354 283.962 98.6224 283.962C99.2094 283.962 99.7113 284.126 100.128 284.454C100.547 284.778 100.867 285.25 101.087 285.869C101.31 286.484 101.421 287.227 101.421 288.097C101.421 288.973 101.311 289.72 101.091 290.338C100.871 290.954 100.552 291.424 100.136 291.749C99.7191 292.071 99.2147 292.233 98.6224 292.233ZM98.6224 291.368C99.2094 291.368 99.6654 291.085 99.9903 290.519C100.315 289.953 100.478 289.146 100.478 288.097C100.478 287.4 100.403 286.807 100.254 286.317C100.107 285.827 99.8947 285.453 99.6169 285.196C99.3418 284.94 99.0103 284.811 98.6224 284.811C98.0407 284.811 97.586 285.098 97.2584 285.672C96.9309 286.243 96.7671 287.052 96.7671 288.097C96.7671 288.794 96.8404 289.387 96.9872 289.874C97.1339 290.362 97.3449 290.732 97.6201 290.987C97.8978 291.241 98.232 291.368 98.6224 291.368Z" fill="#8B8F96"/>
<path d="M141.449 292.233C140.856 292.233 140.352 292.071 139.935 291.749C139.519 291.424 139.2 290.954 138.98 290.338C138.76 289.72 138.65 288.973 138.65 288.097C138.65 287.227 138.76 286.484 138.98 285.869C139.203 285.25 139.523 284.778 139.939 284.454C140.359 284.126 140.862 283.962 141.449 283.962C142.036 283.962 142.538 284.126 142.954 284.454C143.374 284.778 143.693 285.25 143.913 285.869C144.136 286.484 144.247 287.227 144.247 288.097C144.247 288.973 144.137 289.72 143.917 290.338C143.697 290.954 143.379 291.424 142.962 291.749C142.545 292.071 142.041 292.233 141.449 292.233ZM141.449 291.368C142.036 291.368 142.492 291.085 142.817 290.519C143.142 289.953 143.304 289.146 143.304 288.097C143.304 287.4 143.229 286.807 143.08 286.317C142.933 285.827 142.721 285.453 142.443 285.196C142.168 284.94 141.837 284.811 141.449 284.811C140.867 284.811 140.412 285.098 140.085 285.672C139.757 286.243 139.593 287.052 139.593 288.097C139.593 288.794 139.667 289.387 139.814 289.874C139.96 290.362 140.171 290.732 140.446 290.987C140.724 291.241 141.058 291.368 141.449 291.368ZM148.32 292.233C147.78 292.233 147.303 292.137 146.889 291.946C146.478 291.752 146.157 291.486 145.926 291.148C145.695 290.807 145.581 290.419 145.584 289.984C145.581 289.644 145.648 289.329 145.784 289.041C145.921 288.75 146.107 288.508 146.343 288.314C146.581 288.117 146.847 287.993 147.141 287.94V287.893C146.755 287.793 146.449 287.577 146.221 287.244C145.993 286.909 145.88 286.528 145.883 286.101C145.88 285.692 145.984 285.326 146.193 285.004C146.403 284.682 146.691 284.427 147.058 284.241C147.428 284.055 147.848 283.962 148.32 283.962C148.786 283.962 149.203 284.055 149.57 284.241C149.937 284.427 150.225 284.682 150.435 285.004C150.647 285.326 150.754 285.692 150.757 286.101C150.754 286.528 150.638 286.909 150.407 287.244C150.179 287.577 149.876 287.793 149.499 287.893V287.94C149.79 287.993 150.052 288.117 150.285 288.314C150.518 288.508 150.705 288.75 150.843 289.041C150.982 289.329 151.053 289.644 151.056 289.984C151.053 290.419 150.935 290.807 150.702 291.148C150.471 291.486 150.15 291.752 149.739 291.946C149.33 292.137 148.857 292.233 148.32 292.233ZM148.32 291.368C148.684 291.368 148.999 291.309 149.263 291.191C149.528 291.073 149.732 290.907 149.876 290.692C150.021 290.477 150.094 290.225 150.097 289.937C150.094 289.633 150.015 289.364 149.861 289.131C149.706 288.898 149.495 288.715 149.228 288.581C148.963 288.447 148.66 288.38 148.32 288.38C147.977 288.38 147.67 288.447 147.4 288.581C147.133 288.715 146.922 288.898 146.767 289.131C146.615 289.364 146.54 289.633 146.543 289.937C146.54 290.225 146.61 290.477 146.751 290.692C146.896 290.907 147.101 291.073 147.369 291.191C147.636 291.309 147.953 291.368 148.32 291.368ZM148.32 287.547C148.608 287.547 148.864 287.489 149.086 287.374C149.312 287.259 149.489 287.098 149.617 286.891C149.745 286.684 149.811 286.441 149.814 286.163C149.811 285.891 149.747 285.654 149.621 285.452C149.495 285.248 149.321 285.09 149.098 284.98C148.875 284.868 148.616 284.811 148.32 284.811C148.018 284.811 147.755 284.868 147.53 284.98C147.304 285.09 147.13 285.248 147.007 285.452C146.884 285.654 146.823 285.891 146.826 286.163C146.823 286.441 146.885 286.684 147.011 286.891C147.139 287.098 147.316 287.259 147.542 287.374C147.767 287.489 148.026 287.547 148.32 287.547ZM153.005 292.185C152.811 292.185 152.645 292.116 152.506 291.977C152.367 291.838 152.298 291.672 152.298 291.478C152.298 291.284 152.367 291.118 152.506 290.979C152.645 290.84 152.811 290.77 153.005 290.77C153.199 290.77 153.366 290.84 153.505 290.979C153.643 291.118 153.713 291.284 153.713 291.478C153.713 291.606 153.68 291.724 153.615 291.832C153.552 291.939 153.467 292.026 153.359 292.091C153.254 292.154 153.136 292.185 153.005 292.185ZM157.707 292.233C157.114 292.233 156.61 292.071 156.193 291.749C155.777 291.424 155.458 290.954 155.238 290.338C155.018 289.72 154.908 288.973 154.908 288.097C154.908 287.227 155.018 286.484 155.238 285.869C155.461 285.25 155.781 284.778 156.197 284.454C156.616 284.126 157.12 283.962 157.707 283.962C158.294 283.962 158.795 284.126 159.212 284.454C159.631 284.778 159.951 285.25 160.171 285.869C160.394 286.484 160.505 287.227 160.505 288.097C160.505 288.973 160.395 289.72 160.175 290.338C159.955 290.954 159.637 291.424 159.22 291.749C158.803 292.071 158.299 292.233 157.707 292.233ZM157.707 291.368C158.294 291.368 158.75 291.085 159.075 290.519C159.399 289.953 159.562 289.146 159.562 288.097C159.562 287.4 159.487 286.807 159.338 286.317C159.191 285.827 158.979 285.453 158.701 285.196C158.426 284.94 158.094 284.811 157.707 284.811C157.125 284.811 156.67 285.098 156.343 285.672C156.015 286.243 155.851 287.052 155.851 288.097C155.851 288.794 155.925 289.387 156.071 289.874C156.218 290.362 156.429 290.732 156.704 290.987C156.982 291.241 157.316 291.368 157.707 291.368ZM164.625 292.233C164.033 292.233 163.528 292.071 163.111 291.749C162.695 291.424 162.376 290.954 162.156 290.338C161.936 289.72 161.826 288.973 161.826 288.097C161.826 287.227 161.936 286.484 162.156 285.869C162.379 285.25 162.699 284.778 163.115 284.454C163.535 284.126 164.038 283.962 164.625 283.962C165.212 283.962 165.714 284.126 166.13 284.454C166.55 284.778 166.869 285.25 167.089 285.869C167.312 286.484 167.424 287.227 167.424 288.097C167.424 288.973 167.314 289.72 167.093 290.338C166.873 290.954 166.555 291.424 166.138 291.749C165.722 292.071 165.217 292.233 164.625 292.233ZM164.625 291.368C165.212 291.368 165.668 291.085 165.993 290.519C166.318 289.953 166.48 289.146 166.48 288.097C166.48 287.4 166.406 286.807 166.256 286.317C166.109 285.827 165.897 285.453 165.619 285.196C165.344 284.94 165.013 284.811 164.625 284.811C164.043 284.811 163.588 285.098 163.261 285.672C162.933 286.243 162.77 287.052 162.77 288.097C162.77 288.794 162.843 289.387 162.99 289.874C163.136 290.362 163.347 290.732 163.623 290.987C163.9 291.241 164.234 291.368 164.625 291.368Z" fill="#8B8F96"/>
<path d="M207.299 284.072V292.123H206.324V285.094H206.277L204.311 286.399V285.409L206.324 284.072H207.299ZM209.614 292.123V291.415L212.271 288.506C212.583 288.166 212.84 287.869 213.042 287.618C213.243 287.364 213.393 287.125 213.49 286.902C213.589 286.677 213.639 286.441 213.639 286.195C213.639 285.912 213.571 285.667 213.435 285.46C213.301 285.253 213.118 285.093 212.884 284.98C212.651 284.868 212.389 284.811 212.098 284.811C211.789 284.811 211.519 284.875 211.288 285.004C211.06 285.13 210.884 285.307 210.758 285.535C210.635 285.762 210.573 286.03 210.573 286.336H209.645C209.645 285.865 209.754 285.451 209.972 285.094C210.189 284.738 210.485 284.46 210.86 284.261C211.237 284.062 211.661 283.962 212.13 283.962C212.601 283.962 213.019 284.062 213.384 284.261C213.748 284.46 214.033 284.729 214.24 285.067C214.448 285.405 214.551 285.781 214.551 286.195C214.551 286.491 214.497 286.781 214.39 287.064C214.285 287.344 214.102 287.657 213.84 288.003C213.58 288.346 213.22 288.766 212.759 289.261L210.95 291.195V291.258H214.693V292.123H209.614ZM217.008 292.185C216.814 292.185 216.647 292.116 216.509 291.977C216.37 291.838 216.3 291.672 216.3 291.478C216.3 291.284 216.37 291.118 216.509 290.979C216.647 290.84 216.814 290.77 217.008 290.77C217.202 290.77 217.368 290.84 217.507 290.979C217.646 291.118 217.715 291.284 217.715 291.478C217.715 291.606 217.683 291.724 217.617 291.832C217.554 291.939 217.469 292.026 217.362 292.091C217.257 292.154 217.139 292.185 217.008 292.185ZM221.709 292.233C221.117 292.233 220.612 292.071 220.196 291.749C219.779 291.424 219.461 290.954 219.241 290.338C219.02 289.72 218.91 288.973 218.91 288.097C218.91 287.227 219.02 286.484 219.241 285.869C219.463 285.25 219.783 284.778 220.2 284.454C220.619 284.126 221.122 283.962 221.709 283.962C222.296 283.962 222.798 284.126 223.215 284.454C223.634 284.778 223.954 285.25 224.174 285.869C224.396 286.484 224.508 287.227 224.508 288.097C224.508 288.973 224.398 289.72 224.178 290.338C223.957 290.954 223.639 291.424 223.222 291.749C222.806 292.071 222.301 292.233 221.709 292.233ZM221.709 291.368C222.296 291.368 222.752 291.085 223.077 290.519C223.402 289.953 223.564 289.146 223.564 288.097C223.564 287.4 223.49 286.807 223.34 286.317C223.194 285.827 222.981 285.453 222.704 285.196C222.428 284.94 222.097 284.811 221.709 284.811C221.127 284.811 220.673 285.098 220.345 285.672C220.017 286.243 219.854 287.052 219.854 288.097C219.854 288.794 219.927 289.387 220.074 289.874C220.221 290.362 220.432 290.732 220.707 290.987C220.984 291.241 221.319 291.368 221.709 291.368ZM228.627 292.233C228.035 292.233 227.531 292.071 227.114 291.749C226.697 291.424 226.379 290.954 226.159 290.338C225.939 289.72 225.829 288.973 225.829 288.097C225.829 287.227 225.939 286.484 226.159 285.869C226.381 285.25 226.701 284.778 227.118 284.454C227.537 284.126 228.04 283.962 228.627 283.962C229.214 283.962 229.716 284.126 230.133 284.454C230.552 284.778 230.872 285.25 231.092 285.869C231.315 286.484 231.426 287.227 231.426 288.097C231.426 288.973 231.316 289.72 231.096 290.338C230.876 290.954 230.557 291.424 230.141 291.749C229.724 292.071 229.22 292.233 228.627 292.233ZM228.627 291.368C229.214 291.368 229.67 291.085 229.995 290.519C230.32 289.953 230.483 289.146 230.483 288.097C230.483 287.4 230.408 286.807 230.259 286.317C230.112 285.827 229.9 285.453 229.622 285.196C229.347 284.94 229.015 284.811 228.627 284.811C228.046 284.811 227.591 285.098 227.263 285.672C226.936 286.243 226.772 287.052 226.772 288.097C226.772 288.794 226.845 289.387 226.992 289.874C227.139 290.362 227.35 290.732 227.625 290.987C227.903 291.241 228.237 291.368 228.627 291.368Z" fill="#8B8F96"/>
<path d="M271.474 284.072V292.123H270.499V285.094H270.452L268.487 286.399V285.409L270.499 284.072H271.474ZM276.462 292.233C276.132 292.227 275.802 292.164 275.472 292.044C275.142 291.923 274.84 291.72 274.568 291.435C274.295 291.146 274.076 290.757 273.911 290.267C273.746 289.775 273.664 289.156 273.664 288.412C273.664 287.699 273.73 287.068 273.864 286.517C273.998 285.964 274.192 285.499 274.446 285.122C274.7 284.742 275.007 284.454 275.366 284.257C275.727 284.06 276.135 283.962 276.588 283.962C277.039 283.962 277.44 284.053 277.791 284.233C278.145 284.412 278.433 284.661 278.656 284.98C278.878 285.3 279.023 285.668 279.088 286.085H278.129C278.04 285.723 277.867 285.423 277.61 285.185C277.353 284.946 277.013 284.827 276.588 284.827C275.964 284.827 275.473 285.098 275.114 285.641C274.758 286.183 274.578 286.944 274.575 287.924H274.638C274.785 287.702 274.959 287.512 275.161 287.354C275.366 287.195 275.591 287.071 275.837 286.985C276.084 286.898 276.344 286.855 276.62 286.855C277.081 286.855 277.503 286.971 277.885 287.201C278.268 287.429 278.574 287.745 278.805 288.148C279.036 288.549 279.151 289.009 279.151 289.528C279.151 290.026 279.04 290.482 278.817 290.896C278.594 291.308 278.281 291.635 277.877 291.879C277.476 292.12 277.005 292.238 276.462 292.233ZM276.462 291.368C276.792 291.368 277.089 291.285 277.351 291.12C277.615 290.955 277.824 290.734 277.976 290.456C278.13 290.178 278.208 289.869 278.208 289.528C278.208 289.195 278.133 288.893 277.984 288.62C277.837 288.345 277.634 288.126 277.374 287.964C277.117 287.801 276.824 287.72 276.494 287.72C276.245 287.72 276.013 287.77 275.798 287.869C275.583 287.966 275.394 288.1 275.232 288.27C275.072 288.441 274.946 288.636 274.855 288.856C274.763 289.074 274.717 289.303 274.717 289.544C274.717 289.864 274.792 290.162 274.941 290.44C275.093 290.718 275.3 290.942 275.562 291.112C275.827 291.283 276.127 291.368 276.462 291.368ZM281.01 292.185C280.816 292.185 280.65 292.116 280.511 291.977C280.372 291.838 280.303 291.672 280.303 291.478C280.303 291.284 280.372 291.118 280.511 290.979C280.65 290.84 280.816 290.77 281.01 290.77C281.204 290.77 281.371 290.84 281.509 290.979C281.648 291.118 281.718 291.284 281.718 291.478C281.718 291.606 281.685 291.724 281.62 291.832C281.557 291.939 281.471 292.026 281.364 292.091C281.259 292.154 281.141 292.185 281.01 292.185ZM285.711 292.233C285.119 292.233 284.615 292.071 284.198 291.749C283.781 291.424 283.463 290.954 283.243 290.338C283.023 289.72 282.913 288.973 282.913 288.097C282.913 287.227 283.023 286.484 283.243 285.869C283.466 285.25 283.785 284.778 284.202 284.454C284.621 284.126 285.124 283.962 285.711 283.962C286.299 283.962 286.8 284.126 287.217 284.454C287.636 284.778 287.956 285.25 288.176 285.869C288.399 286.484 288.51 287.227 288.51 288.097C288.51 288.973 288.4 289.72 288.18 290.338C287.96 290.954 287.642 291.424 287.225 291.749C286.808 292.071 286.304 292.233 285.711 292.233ZM285.711 291.368C286.299 291.368 286.754 291.085 287.079 290.519C287.404 289.953 287.567 289.146 287.567 288.097C287.567 287.4 287.492 286.807 287.343 286.317C287.196 285.827 286.984 285.453 286.706 285.196C286.431 284.94 286.099 284.811 285.711 284.811C285.13 284.811 284.675 285.098 284.348 285.672C284.02 286.243 283.856 287.052 283.856 288.097C283.856 288.794 283.93 289.387 284.076 289.874C284.223 290.362 284.434 290.732 284.709 290.987C284.987 291.241 285.321 291.368 285.711 291.368ZM292.63 292.233C292.038 292.233 291.533 292.071 291.116 291.749C290.7 291.424 290.381 290.954 290.161 290.338C289.941 289.72 289.831 288.973 289.831 288.097C289.831 287.227 289.941 286.484 290.161 285.869C290.384 285.25 290.704 284.778 291.12 284.454C291.54 284.126 292.043 283.962 292.63 283.962C293.217 283.962 293.719 284.126 294.135 284.454C294.555 284.778 294.874 285.25 295.094 285.869C295.317 286.484 295.428 287.227 295.428 288.097C295.428 288.973 295.318 289.72 295.098 290.338C294.878 290.954 294.56 291.424 294.143 291.749C293.726 292.071 293.222 292.233 292.63 292.233ZM292.63 291.368C293.217 291.368 293.673 291.085 293.998 290.519C294.323 289.953 294.485 289.146 294.485 288.097C294.485 287.4 294.41 286.807 294.261 286.317C294.114 285.827 293.902 285.453 293.624 285.196C293.349 284.94 293.018 284.811 292.63 284.811C292.048 284.811 291.593 285.098 291.266 285.672C290.938 286.243 290.774 287.052 290.774 288.097C290.774 288.794 290.848 289.387 290.995 289.874C291.141 290.362 291.352 290.732 291.627 290.987C291.905 291.241 292.239 291.368 292.63 291.368Z" fill="#8B8F96"/>
<path d="M331.982 292.123V291.415L334.639 288.506C334.951 288.166 335.208 287.869 335.41 287.618C335.612 287.364 335.761 287.125 335.858 286.902C335.957 286.677 336.007 286.441 336.007 286.195C336.007 285.912 335.939 285.667 335.803 285.46C335.669 285.253 335.486 285.093 335.253 284.98C335.019 284.868 334.757 284.811 334.466 284.811C334.157 284.811 333.887 284.875 333.657 285.004C333.429 285.13 333.252 285.307 333.126 285.535C333.003 285.762 332.941 286.03 332.941 286.336H332.014C332.014 285.865 332.122 285.451 332.34 285.094C332.557 284.738 332.853 284.46 333.228 284.261C333.606 284.062 334.029 283.962 334.498 283.962C334.97 283.962 335.388 284.062 335.752 284.261C336.116 284.46 336.402 284.729 336.609 285.067C336.816 285.405 336.919 285.781 336.919 286.195C336.919 286.491 336.865 286.781 336.758 287.064C336.653 287.344 336.47 287.657 336.208 288.003C335.948 288.346 335.588 288.766 335.127 289.261L333.319 291.195V291.258H337.061V292.123H331.982ZM341.31 292.233C340.718 292.233 340.213 292.071 339.797 291.749C339.38 291.424 339.062 290.954 338.841 290.338C338.621 289.72 338.511 288.973 338.511 288.097C338.511 287.227 338.621 286.484 338.841 285.869C339.064 285.25 339.384 284.778 339.801 284.454C340.22 284.126 340.723 283.962 341.31 283.962C341.897 283.962 342.399 284.126 342.815 284.454C343.235 284.778 343.554 285.25 343.775 285.869C343.997 286.484 344.109 287.227 344.109 288.097C344.109 288.973 343.999 289.72 343.778 290.338C343.558 290.954 343.24 291.424 342.823 291.749C342.407 292.071 341.902 292.233 341.31 292.233ZM341.31 291.368C341.897 291.368 342.353 291.085 342.678 290.519C343.003 289.953 343.165 289.146 343.165 288.097C343.165 287.4 343.091 286.807 342.941 286.317C342.794 285.827 342.582 285.453 342.304 285.196C342.029 284.94 341.698 284.811 341.31 284.811C340.728 284.811 340.274 285.098 339.946 285.672C339.618 286.243 339.455 287.052 339.455 288.097C339.455 288.794 339.528 289.387 339.675 289.874C339.821 290.362 340.032 290.732 340.308 290.987C340.585 291.241 340.919 291.368 341.31 291.368ZM346.013 292.185C345.819 292.185 345.653 292.116 345.514 291.977C345.375 291.838 345.306 291.672 345.306 291.478C345.306 291.284 345.375 291.118 345.514 290.979C345.653 290.84 345.819 290.77 346.013 290.77C346.207 290.77 346.373 290.84 346.512 290.979C346.651 291.118 346.721 291.284 346.721 291.478C346.721 291.606 346.688 291.724 346.622 291.832C346.56 291.939 346.474 292.026 346.367 292.091C346.262 292.154 346.144 292.185 346.013 292.185ZM350.714 292.233C350.122 292.233 349.618 292.071 349.201 291.749C348.784 291.424 348.466 290.954 348.246 290.338C348.026 289.72 347.916 288.973 347.916 288.097C347.916 287.227 348.026 286.484 348.246 285.869C348.469 285.25 348.788 284.778 349.205 284.454C349.624 284.126 350.127 283.962 350.714 283.962C351.301 283.962 351.803 284.126 352.22 284.454C352.639 284.778 352.959 285.25 353.179 285.869C353.402 286.484 353.513 287.227 353.513 288.097C353.513 288.973 353.403 289.72 353.183 290.338C352.963 290.954 352.644 291.424 352.228 291.749C351.811 292.071 351.307 292.233 350.714 292.233ZM350.714 291.368C351.301 291.368 351.757 291.085 352.082 290.519C352.407 289.953 352.57 289.146 352.57 288.097C352.57 287.4 352.495 286.807 352.346 286.317C352.199 285.827 351.987 285.453 351.709 285.196C351.434 284.94 351.102 284.811 350.714 284.811C350.133 284.811 349.678 285.098 349.35 285.672C349.023 286.243 348.859 287.052 348.859 288.097C348.859 288.794 348.932 289.387 349.079 289.874C349.226 290.362 349.437 290.732 349.712 290.987C349.99 291.241 350.324 291.368 350.714 291.368ZM357.633 292.233C357.04 292.233 356.536 292.071 356.119 291.749C355.703 291.424 355.384 290.954 355.164 290.338C354.944 289.72 354.834 288.973 354.834 288.097C354.834 287.227 354.944 286.484 355.164 285.869C355.387 285.25 355.707 284.778 356.123 284.454C356.543 284.126 357.046 283.962 357.633 283.962C358.22 283.962 358.722 284.126 359.138 284.454C359.557 284.778 359.877 285.25 360.097 285.869C360.32 286.484 360.431 287.227 360.431 288.097C360.431 288.973 360.321 289.72 360.101 290.338C359.881 290.954 359.563 291.424 359.146 291.749C358.729 292.071 358.225 292.233 357.633 292.233ZM357.633 291.368C358.22 291.368 358.676 291.085 359.001 290.519C359.326 289.953 359.488 289.146 359.488 288.097C359.488 287.4 359.413 286.807 359.264 286.317C359.117 285.827 358.905 285.453 358.627 285.196C358.352 284.94 358.021 284.811 357.633 284.811C357.051 284.811 356.596 285.098 356.269 285.672C355.941 286.243 355.777 287.052 355.777 288.097C355.777 288.794 355.851 289.387 355.997 289.874C356.144 290.362 356.355 290.732 356.63 290.987C356.908 291.241 357.242 291.368 357.633 291.368Z" fill="#8B8F96"/>
<path d="M397.071 292.123V291.415L399.728 288.506C400.04 288.166 400.297 287.869 400.499 287.618C400.7 287.364 400.85 287.125 400.947 286.902C401.046 286.677 401.096 286.441 401.096 286.195C401.096 285.912 401.028 285.667 400.892 285.46C400.758 285.253 400.575 285.093 400.341 284.98C400.108 284.868 399.846 284.811 399.555 284.811C399.246 284.811 398.976 284.875 398.746 285.004C398.518 285.13 398.341 285.307 398.215 285.535C398.092 285.762 398.03 286.03 398.03 286.336H397.102C397.102 285.865 397.211 285.451 397.429 285.094C397.646 284.738 397.942 284.46 398.317 284.261C398.694 284.062 399.118 283.962 399.587 283.962C400.058 283.962 400.476 284.062 400.841 284.261C401.205 284.46 401.491 284.729 401.698 285.067C401.905 285.405 402.008 285.781 402.008 286.195C402.008 286.491 401.954 286.781 401.847 287.064C401.742 287.344 401.559 287.657 401.297 288.003C401.037 288.346 400.677 288.766 400.216 289.261L398.407 291.195V291.258H402.15V292.123H397.071ZM403.411 290.472V289.67L406.949 284.072H407.531V285.314H407.138L404.465 289.544V289.607H409.229V290.472H403.411ZM407.201 292.123V290.228V289.854V284.072H408.128V292.123H407.201ZM411.016 292.185C410.822 292.185 410.655 292.116 410.516 291.977C410.378 291.838 410.308 291.672 410.308 291.478C410.308 291.284 410.378 291.118 410.516 290.979C410.655 290.84 410.822 290.77 411.016 290.77C411.21 290.77 411.376 290.84 411.515 290.979C411.654 291.118 411.723 291.284 411.723 291.478C411.723 291.606 411.69 291.724 411.625 291.832C411.562 291.939 411.477 292.026 411.369 292.091C411.265 292.154 411.147 292.185 411.016 292.185ZM415.717 292.233C415.125 292.233 414.62 292.071 414.204 291.749C413.787 291.424 413.468 290.954 413.248 290.338C413.028 289.72 412.918 288.973 412.918 288.097C412.918 287.227 413.028 286.484 413.248 285.869C413.471 285.25 413.791 284.778 414.207 284.454C414.627 284.126 415.13 283.962 415.717 283.962C416.304 283.962 416.806 284.126 417.222 284.454C417.642 284.778 417.961 285.25 418.181 285.869C418.404 286.484 418.516 287.227 418.516 288.097C418.516 288.973 418.406 289.72 418.185 290.338C417.965 290.954 417.647 291.424 417.23 291.749C416.814 292.071 416.309 292.233 415.717 292.233ZM415.717 291.368C416.304 291.368 416.76 291.085 417.085 290.519C417.41 289.953 417.572 289.146 417.572 288.097C417.572 287.4 417.498 286.807 417.348 286.317C417.201 285.827 416.989 285.453 416.711 285.196C416.436 284.94 416.105 284.811 415.717 284.811C415.135 284.811 414.68 285.098 414.353 285.672C414.025 286.243 413.862 287.052 413.862 288.097C413.862 288.794 413.935 289.387 414.082 289.874C414.228 290.362 414.439 290.732 414.715 290.987C414.992 291.241 415.326 291.368 415.717 291.368ZM422.635 292.233C422.043 292.233 421.538 292.071 421.122 291.749C420.705 291.424 420.387 290.954 420.167 290.338C419.946 289.72 419.836 288.973 419.836 288.097C419.836 287.227 419.946 286.484 420.167 285.869C420.389 285.25 420.709 284.778 421.126 284.454C421.545 284.126 422.048 283.962 422.635 283.962C423.222 283.962 423.724 284.126 424.141 284.454C424.56 284.778 424.88 285.25 425.1 285.869C425.322 286.484 425.434 287.227 425.434 288.097C425.434 288.973 425.324 289.72 425.104 290.338C424.884 290.954 424.565 291.424 424.148 291.749C423.732 292.071 423.227 292.233 422.635 292.233ZM422.635 291.368C423.222 291.368 423.678 291.085 424.003 290.519C424.328 289.953 424.49 289.146 424.49 288.097C424.49 287.4 424.416 286.807 424.266 286.317C424.12 285.827 423.907 285.453 423.63 285.196C423.354 284.94 423.023 284.811 422.635 284.811C422.053 284.811 421.599 285.098 421.271 285.672C420.944 286.243 420.78 287.052 420.78 288.097C420.78 288.794 420.853 289.387 421 289.874C421.147 290.362 421.358 290.732 421.633 290.987C421.911 291.241 422.245 291.368 422.635 291.368Z" fill="#8B8F96"/>
<path d="M25.3975 34H24.0059L21.0557 26.5743H22.3248L24.6961 32.7865L27.0786 26.5743H28.3477L25.3975 34ZM30.9355 34.1336C30.3937 34.1336 29.915 34.0074 29.4994 33.7551C29.0912 33.5027 28.7757 33.1613 28.5531 32.7308C28.3304 32.3004 28.2191 31.8254 28.2191 31.3058C28.2191 30.7863 28.3304 30.315 28.5531 29.892C28.7757 29.4615 29.0912 29.1201 29.4994 28.8677C29.915 28.6154 30.3937 28.4892 30.9355 28.4892C31.4773 28.4892 31.9523 28.6154 32.3605 28.8677C32.7762 29.1201 33.0953 29.4615 33.318 29.892C33.5406 30.315 33.652 30.7863 33.652 31.3058C33.652 31.8254 33.5406 32.3004 33.318 32.7308C33.0953 33.1613 32.7762 33.5027 32.3605 33.7551C31.9523 34.0074 31.4773 34.1336 30.9355 34.1336ZM30.9355 33.243C31.2844 33.243 31.5849 33.1539 31.8373 32.9758C32.0896 32.7976 32.2789 32.5639 32.4051 32.2744C32.5387 31.9775 32.6055 31.6547 32.6055 31.3058C32.6055 30.9644 32.5387 30.6453 32.4051 30.3484C32.2789 30.0515 32.0896 29.8177 31.8373 29.647C31.5849 29.4689 31.2844 29.3798 30.9355 29.3798C30.5941 29.3798 30.2972 29.4689 30.0449 29.647C29.7925 29.8252 29.5996 30.0627 29.466 30.3595C29.3324 30.649 29.2656 30.9644 29.2656 31.3058C29.2656 31.6547 29.3324 31.9775 29.466 32.2744C29.5996 32.5639 29.7925 32.7976 30.0449 32.9758C30.2972 33.1539 30.5941 33.243 30.9355 33.243ZM35.926 34H34.9241V26.5743H35.926V34ZM41.1518 33.2652C40.9217 33.5176 40.6397 33.7254 40.3057 33.8887C39.9791 34.052 39.6229 34.1336 39.2369 34.1336C38.094 34.1336 37.5225 33.5621 37.5225 32.4191V28.6228H38.5244V32.0851C38.5244 32.5082 38.6209 32.8088 38.8139 32.9869C39.0069 33.1576 39.2889 33.243 39.66 33.243C39.9569 33.243 40.2389 33.1725 40.5061 33.0314C40.7733 32.883 40.9885 32.7012 41.1518 32.4859V28.6228H42.1538V34H41.1518V33.2652ZM50.2763 30.4152C50.2763 30.0886 50.1983 29.8363 50.0425 29.6582C49.894 29.4726 49.6603 29.3798 49.3411 29.3798C49.0813 29.3798 48.829 29.4578 48.5841 29.6136C48.3391 29.7621 48.1462 29.9402 48.0052 30.148V34H47.0032V30.4152C47.0032 29.725 46.6878 29.3798 46.0569 29.3798C45.812 29.3798 45.567 29.4578 45.3221 29.6136C45.0846 29.7621 44.8917 29.9439 44.7432 30.1591V34H43.7412V28.6228H44.7432V29.3798C44.8768 29.172 45.1069 28.9716 45.4335 28.7787C45.7674 28.5857 46.1163 28.4892 46.4799 28.4892C46.8733 28.4892 47.1925 28.582 47.4374 28.7675C47.6823 28.9457 47.8493 29.1869 47.9384 29.4912C48.1091 29.2166 48.3614 28.9828 48.6954 28.7898C49.0294 28.5894 49.3819 28.4892 49.753 28.4892C50.2503 28.4892 50.6288 28.6265 50.8886 28.9011C51.1484 29.1757 51.2782 29.5802 51.2782 30.1146V34H50.2763V30.4152ZM52.5397 31.3058C52.5397 30.7937 52.6548 30.3224 52.8849 29.892C53.1149 29.4615 53.4341 29.1201 53.8423 28.8677C54.2579 28.6154 54.7218 28.4892 55.2339 28.4892C55.7609 28.4892 56.221 28.6154 56.6144 28.8677C57.0152 29.1201 57.3195 29.4689 57.5273 29.9142C57.7425 30.3521 57.8501 30.8457 57.8501 31.3949V31.6398H53.5974C53.6345 32.1148 53.8163 32.5119 54.1429 32.831C54.4769 33.1502 54.9036 33.3098 55.4232 33.3098C55.7126 33.3098 56.0021 33.2541 56.2915 33.1428C56.581 33.0314 56.8222 32.8756 57.0152 32.6752L57.4828 33.332C57.2156 33.5918 56.8964 33.7922 56.5253 33.9332C56.1616 34.0668 55.7609 34.1336 55.323 34.1336C54.7886 34.1336 54.3099 34.0148 53.8868 33.7773C53.4712 33.5398 53.1409 33.2096 52.896 32.7865C52.6585 32.356 52.5397 31.8625 52.5397 31.3058ZM55.2339 29.313C54.8925 29.313 54.5993 29.3947 54.3544 29.558C54.1169 29.7138 53.9351 29.9142 53.8089 30.1591C53.6827 30.4041 53.6085 30.6564 53.5862 30.9162H56.8704C56.863 30.6564 56.7999 30.4041 56.6812 30.1591C56.5624 29.9142 56.3806 29.7138 56.1357 29.558C55.8907 29.3947 55.5902 29.313 55.2339 29.313Z" fill="#8B8F96"/>
<path d="M30.4184 52.295C30.4184 53.1968 30.1123 53.9649 29.5 54.5995C28.8988 55.2229 28.0026 55.5903 26.8114 55.7017V57.2046H25.4754V55.7184C23.8723 55.5959 22.5753 55.0114 21.5845 53.9649L22.6699 52.462C23.0262 52.8294 23.4381 53.1467 23.9057 53.4138C24.3844 53.681 24.9077 53.8592 25.4754 53.9482V50.7252C24.7629 50.5471 24.1562 50.3467 23.6552 50.1241C23.1654 49.8903 22.7534 49.5619 22.4194 49.1388C22.0966 48.7158 21.9352 48.1647 21.9352 47.4856C21.9352 46.9178 22.0799 46.4001 22.3693 45.9325C22.6588 45.4649 23.0707 45.0809 23.6051 44.7803C24.1506 44.4797 24.7741 44.3016 25.4754 44.2459V42.7095H26.8114V44.2793C28.1473 44.4129 29.2662 44.9139 30.168 45.7822L29.0491 47.2351C28.4479 46.6339 27.702 46.2442 26.8114 46.0661V48.9384C27.535 49.1388 28.1473 49.3559 28.6483 49.5897C29.1604 49.8235 29.5835 50.1575 29.9175 50.5917C30.2515 51.0258 30.4184 51.5936 30.4184 52.295ZM23.9391 47.352C23.9391 47.6526 24.0727 47.8975 24.3399 48.0867C24.6071 48.276 24.9856 48.443 25.4754 48.5877V45.9826C24.9967 46.0383 24.6182 46.1886 24.3399 46.4335C24.0727 46.6673 23.9391 46.9735 23.9391 47.352ZM26.8114 53.9482C27.3569 53.8703 27.7632 53.6922 28.0304 53.4138C28.2976 53.1355 28.4312 52.8238 28.4312 52.4787C28.4312 52.1224 28.2921 51.8385 28.0137 51.627C27.7465 51.4155 27.3458 51.2318 26.8114 51.0759V53.9482ZM31.9459 53.9983C33.5379 52.796 34.7403 51.8497 35.553 51.1594C36.3768 50.4581 36.9836 49.8346 37.3732 49.2891C37.7629 48.7325 37.9577 48.1925 37.9577 47.6693C37.9577 47.1237 37.7573 46.7063 37.3565 46.4168C36.9669 46.1162 36.4937 45.9659 35.9371 45.9659C35.3136 45.9659 34.7458 46.0828 34.2337 46.3166C33.7328 46.5504 33.2986 46.8788 32.9312 47.3019L31.7956 46.016C32.2743 45.4371 32.8755 44.9974 33.5992 44.6968C34.3339 44.385 35.1021 44.2292 35.9037 44.2292C36.6384 44.2292 37.312 44.3628 37.9243 44.63C38.5366 44.8972 39.0265 45.2924 39.3938 45.8156C39.7612 46.3389 39.9449 46.9568 39.9449 47.6693C39.9449 48.6267 39.5441 49.5786 38.7426 50.5249C37.941 51.4712 36.7164 52.5677 35.0687 53.8146H40.0117V55.5347H31.9459V53.9983ZM48.7743 55.5347H46.8205V53.0131H41.5101V51.4433L46.0857 44.3962H48.7743V51.293H50.2606V53.0131H48.7743V55.5347ZM46.8205 51.293V46.1496L43.4305 51.293H46.8205ZM51.5978 54.5494C51.5978 54.2265 51.7147 53.9538 51.9485 53.7311C52.1823 53.4973 52.4551 53.3804 52.7668 53.3804C53.0896 53.3804 53.3624 53.4973 53.5851 53.7311C53.8188 53.9538 53.9357 54.2265 53.9357 54.5494C53.9357 54.8611 53.8188 55.1339 53.5851 55.3677C53.3624 55.6015 53.0896 55.7184 52.7668 55.7184C52.4551 55.7184 52.1823 55.6015 51.9485 55.3677C51.7147 55.1339 51.5978 54.8611 51.5978 54.5494ZM57.8067 55.5347H55.6692L59.8775 46.1162H54.0995V44.3962H62.1319V45.7488L57.8067 55.5347ZM75.2948 55.5347H73.3409V47.1015L69.9176 55.5347H69.0826L65.6759 47.1015V55.5347H63.7221V44.3962H66.4775L69.5001 51.8942L72.5394 44.3962H75.2948V55.5347Z" fill="#EDF1F5"/>
<path d="M21.8381 70.1011V69.3895L24.5107 66.4639C24.8243 66.1213 25.0826 65.8234 25.2855 65.5704C25.4885 65.3148 25.6387 65.0749 25.7362 64.8509C25.8364 64.6242 25.8865 64.387 25.8865 64.1393C25.8865 63.8546 25.8179 63.6082 25.6809 63.4C25.5465 63.1918 25.362 63.031 25.1274 62.9177C24.8928 62.8043 24.6293 62.7477 24.3367 62.7477C24.0257 62.7477 23.7542 62.8122 23.5223 62.9414C23.293 63.0679 23.1151 63.2458 22.9886 63.4751C22.8647 63.7044 22.8028 63.9732 22.8028 64.2816H21.8698C21.8698 63.8072 21.9791 63.3907 22.1979 63.0323C22.4167 62.6739 22.7145 62.3945 23.0914 62.1942C23.4709 61.9939 23.8966 61.8937 24.3683 61.8937C24.8428 61.8937 25.2631 61.9939 25.6295 62.1942C25.9958 62.3945 26.2831 62.6646 26.4913 63.0046C26.6996 63.3446 26.8037 63.7228 26.8037 64.1393C26.8037 64.4371 26.7496 64.7283 26.6416 65.013C26.5362 65.295 26.3517 65.61 26.0881 65.9579C25.8272 66.3031 25.4648 66.7248 25.0009 67.223L23.1823 69.1681V69.2313H26.946V70.1011H21.8381ZM31.1564 61.8937C31.4885 61.8963 31.8206 61.9596 32.1527 62.0835C32.4848 62.2073 32.7879 62.4129 33.062 62.7002C33.3361 62.9849 33.5562 63.3736 33.7222 63.8665C33.8883 64.3593 33.9713 64.9774 33.9713 65.7207C33.9713 66.4402 33.9027 67.0793 33.7657 67.6381C33.6313 68.1942 33.4362 68.6633 33.1806 69.0455C32.9276 69.4277 32.6192 69.7176 32.2555 69.9153C31.8944 70.1129 31.4859 70.2118 31.0299 70.2118C30.5766 70.2118 30.172 70.1222 29.8162 69.9429C29.463 69.7611 29.1731 69.5094 28.9464 69.1878C28.7224 68.8636 28.5788 68.4881 28.5155 68.0611H29.4802C29.5671 68.4327 29.7398 68.7398 29.9981 68.9822C30.259 69.2221 30.6029 69.342 31.0299 69.342C31.6546 69.342 32.1474 69.0692 32.5085 68.5236C32.8722 67.9781 33.0541 67.2071 33.0541 66.2109H32.9908C32.8432 66.4323 32.668 66.6234 32.465 66.7841C32.2621 66.9449 32.0367 67.0688 31.789 67.1558C31.5412 67.2427 31.2777 67.2862 30.9983 67.2862C30.5344 67.2862 30.1088 67.1716 29.7213 66.9423C29.3365 66.7103 29.0281 66.3927 28.7962 65.9895C28.5669 65.5836 28.4523 65.1197 28.4523 64.5979C28.4523 64.1024 28.563 63.649 28.7843 63.2379C29.0084 62.8241 29.322 62.4946 29.7253 62.2495C30.1312 62.0044 30.6082 61.8858 31.1564 61.8937ZM31.1564 62.7635C30.8243 62.7635 30.5252 62.8465 30.259 63.0125C29.9954 63.1759 29.7859 63.3973 29.6304 63.6767C29.4775 63.9535 29.4011 64.2605 29.4011 64.5979C29.4011 64.9352 29.4749 65.2423 29.6225 65.519C29.7727 65.7931 29.977 66.0119 30.2353 66.1753C30.4962 66.3361 30.7927 66.4165 31.1248 66.4165C31.3752 66.4165 31.6084 66.3677 31.8246 66.2702C32.0407 66.17 32.2291 66.0343 32.3899 65.863C32.5533 65.689 32.6811 65.4927 32.7734 65.2739C32.8656 65.0525 32.9117 64.8219 32.9117 64.5821C32.9117 64.2658 32.8353 63.9693 32.6824 63.6925C32.5322 63.4158 32.324 63.1918 32.0578 63.0204C31.7942 62.8491 31.4938 62.7635 31.1564 62.7635ZM39.1315 70.1011H38.1036L41.0766 62.0044H42.0887L45.0617 70.1011H44.0338L41.6143 63.2853H41.551L39.1315 70.1011ZM39.511 66.9383H43.6543V67.8081H39.511V66.9383ZM50.0233 67.6183V64.0286H50.9563V70.1011H50.0233V69.0732H49.96C49.8177 69.3815 49.5963 69.6438 49.2958 69.8599C48.9954 70.0734 48.6158 70.1801 48.1572 70.1801C47.7777 70.1801 47.4404 70.0971 47.1452 69.9311C46.85 69.7624 46.618 69.5094 46.4494 69.172C46.2807 68.832 46.1963 68.4037 46.1963 67.8871V64.0286H47.1293V67.8239C47.1293 68.2667 47.2532 68.6198 47.501 68.8834C47.7514 69.147 48.0703 69.2788 48.4577 69.2788C48.6896 69.2788 48.9255 69.2195 49.1654 69.1009C49.4079 68.9822 49.6108 68.8004 49.7742 68.5553C49.9403 68.3102 50.0233 67.9978 50.0233 67.6183ZM55.1163 72.5048C54.6656 72.5048 54.2782 72.4468 53.954 72.3308C53.6298 72.2175 53.3597 72.0673 53.1435 71.8801C52.9301 71.6956 52.7601 71.498 52.6335 71.2871L53.3768 70.7653C53.4611 70.876 53.5679 71.0025 53.697 71.1448C53.8262 71.2897 54.0028 71.4149 54.2268 71.5204C54.4534 71.6284 54.75 71.6825 55.1163 71.6825C55.6065 71.6825 56.0111 71.5639 56.33 71.3266C56.6489 71.0894 56.8084 70.7178 56.8084 70.2118V68.9783H56.7293C56.6608 69.089 56.5633 69.226 56.4368 69.3895C56.3129 69.5502 56.1337 69.6939 55.8991 69.8204C55.6672 69.9443 55.3535 70.0062 54.9582 70.0062C54.4679 70.0062 54.0278 69.8902 53.6377 69.6583C53.2503 69.4264 52.9432 69.089 52.7166 68.6462C52.4925 68.2034 52.3805 67.6657 52.3805 67.0332C52.3805 66.4112 52.4899 65.8696 52.7087 65.4083C52.9274 64.9445 53.2318 64.586 53.6219 64.333C54.012 64.0773 54.4627 63.9495 54.974 63.9495C55.3693 63.9495 55.683 64.0154 55.9149 64.1472C56.1495 64.2763 56.3287 64.4239 56.4526 64.59C56.5791 64.7534 56.6766 64.8878 56.7451 64.9932H56.84V64.0286H57.7414V70.275C57.7414 70.7969 57.6228 71.2212 57.3856 71.548C57.151 71.8775 56.8347 72.1187 56.4368 72.2715C56.0414 72.427 55.6013 72.5048 55.1163 72.5048ZM55.0847 69.1681C55.4589 69.1681 55.7752 69.0824 56.0335 68.9111C56.2918 68.7398 56.4882 68.4933 56.6226 68.1718C56.757 67.8502 56.8242 67.4654 56.8242 67.0174C56.8242 66.5799 56.7583 66.1937 56.6265 65.859C56.4947 65.5243 56.2997 65.262 56.0414 65.0723C55.7831 64.8825 55.4642 64.7876 55.0847 64.7876C54.6893 64.7876 54.3599 64.8878 54.0963 65.0881C53.8354 65.2884 53.639 65.5572 53.5073 65.8946C53.3781 66.232 53.3135 66.6062 53.3135 67.0174C53.3135 67.4391 53.3794 67.812 53.5112 68.1362C53.6456 68.4578 53.8433 68.7108 54.1042 68.8953C54.3678 69.0771 54.6946 69.1681 55.0847 69.1681ZM62.5646 70.1011V69.3895L65.2371 66.4639C65.5508 66.1213 65.8091 65.8234 66.012 65.5704C66.215 65.3148 66.3652 65.0749 66.4627 64.8509C66.5629 64.6242 66.6129 64.387 66.6129 64.1393C66.6129 63.8546 66.5444 63.6082 66.4074 63.4C66.2729 63.1918 66.0885 63.031 65.8539 62.9177C65.6193 62.8043 65.3557 62.7477 65.0632 62.7477C64.7522 62.7477 64.4807 62.8122 64.2488 62.9414C64.0195 63.0679 63.8416 63.2458 63.7151 63.4751C63.5912 63.7044 63.5293 63.9732 63.5293 64.2816H62.5962C62.5962 63.8072 62.7056 63.3907 62.9244 63.0323C63.1431 62.6739 63.441 62.3945 63.8179 62.1942C64.1974 61.9939 64.623 61.8937 65.0948 61.8937C65.5692 61.8937 65.9896 61.9939 66.356 62.1942C66.7223 62.3945 67.0096 62.6646 67.2178 63.0046C67.426 63.3446 67.5301 63.7228 67.5301 64.1393C67.5301 64.4371 67.4761 64.7283 67.3681 65.013C67.2626 65.295 67.0781 65.61 66.8146 65.9579C66.5536 66.3031 66.1912 66.7248 65.7274 67.223L63.9088 69.1681V69.2313H67.6725V70.1011H62.5646ZM71.9462 70.2118C71.3505 70.2118 70.8431 70.0497 70.4241 69.7255C70.005 69.3987 69.6848 68.9256 69.4634 68.3062C69.242 67.6842 69.1313 66.933 69.1313 66.0527C69.1313 65.1777 69.242 64.4305 69.4634 63.8111C69.6874 63.1891 70.009 62.7147 70.428 62.3879C70.8497 62.0584 71.3558 61.8937 71.9462 61.8937C72.5365 61.8937 73.0413 62.0584 73.4603 62.3879C73.882 62.7147 74.2036 63.1891 74.425 63.8111C74.649 64.4305 74.761 65.1777 74.761 66.0527C74.761 66.933 74.6503 67.6842 74.4289 68.3062C74.2075 68.9256 73.8873 69.3987 73.4682 69.7255C73.0492 70.0497 72.5418 70.2118 71.9462 70.2118ZM71.9462 69.342C72.5365 69.342 72.9951 69.0574 73.322 68.4881C73.6488 67.9188 73.8122 67.107 73.8122 66.0527C73.8122 65.3517 73.7371 64.7547 73.5868 64.2618C73.4392 63.769 73.2258 63.3934 72.9464 63.1351C72.6696 62.8768 72.3362 62.7477 71.9462 62.7477C71.361 62.7477 70.9038 63.0363 70.5743 63.6135C70.2448 64.188 70.0801 65.0011 70.0801 66.0527C70.0801 66.7538 70.1539 67.3495 70.3015 67.8397C70.4491 68.3299 70.6613 68.7029 70.938 68.9585C71.2174 69.2142 71.5534 69.342 71.9462 69.342ZM76.2633 70.1011V69.3895L78.9359 66.4639C79.2495 66.1213 79.5078 65.8234 79.7107 65.5704C79.9137 65.3148 80.0639 65.0749 80.1614 64.8509C80.2616 64.6242 80.3117 64.387 80.3117 64.1393C80.3117 63.8546 80.2431 63.6082 80.1061 63.4C79.9717 63.1918 79.7872 63.031 79.5526 62.9177C79.318 62.8043 79.0545 62.7477 78.7619 62.7477C78.4509 62.7477 78.1794 62.8122 77.9475 62.9414C77.7182 63.0679 77.5403 63.2458 77.4138 63.4751C77.2899 63.7044 77.228 63.9732 77.228 64.2816H76.2949C76.2949 63.8072 76.4043 63.3907 76.6231 63.0323C76.8418 62.6739 77.1397 62.3945 77.5166 62.1942C77.8961 61.9939 78.3218 61.8937 78.7935 61.8937C79.2679 61.8937 79.6883 61.9939 80.0547 62.1942C80.421 62.3945 80.7083 62.6646 80.9165 63.0046C81.1247 63.3446 81.2289 63.7228 81.2289 64.1393C81.2289 64.4371 81.1748 64.7283 81.0668 65.013C80.9613 65.295 80.7768 65.61 80.5133 65.9579C80.2524 66.3031 79.89 66.7248 79.4261 67.223L77.6075 69.1681V69.2313H81.3712V70.1011H76.2633ZM85.7397 70.2118C85.2179 70.2118 84.7527 70.1222 84.3442 69.9429C83.9383 69.7637 83.6154 69.5146 83.3756 69.1957C83.1384 68.8742 83.0092 68.5012 82.9881 68.0769H83.9844C84.0055 68.3378 84.0951 68.5632 84.2532 68.7529C84.4114 68.9401 84.6183 69.085 84.8739 69.1878C85.1296 69.2906 85.4129 69.342 85.7239 69.342C86.0718 69.342 86.3802 69.2814 86.649 69.1602C86.9179 69.0389 87.1287 68.8702 87.2816 68.6541C87.4345 68.438 87.5109 68.1876 87.5109 67.903C87.5109 67.6051 87.4371 67.3429 87.2895 67.1162C87.1419 66.8869 86.9258 66.7077 86.6411 66.5785C86.3565 66.4494 86.0086 66.3848 85.5974 66.3848H84.9491V65.5151H85.5974C85.919 65.5151 86.201 65.4571 86.4435 65.3411C86.6886 65.2252 86.8797 65.0617 87.0167 64.8509C87.1564 64.64 87.2262 64.3923 87.2262 64.1076C87.2262 63.8335 87.1656 63.595 87.0444 63.3921C86.9231 63.1891 86.7518 63.031 86.5304 62.9177C86.3117 62.8043 86.0534 62.7477 85.7556 62.7477C85.4762 62.7477 85.2126 62.799 84.9649 62.9018C84.7198 63.002 84.5194 63.1483 84.3639 63.3407C84.2084 63.5304 84.1241 63.7597 84.1109 64.0286H83.1621C83.1779 63.6042 83.3057 63.2326 83.5456 62.9137C83.7854 62.5922 84.0991 62.3418 84.4865 62.1625C84.8766 61.9833 85.3049 61.8937 85.7714 61.8937C86.2721 61.8937 86.7018 61.9952 87.0602 62.1981C87.4186 62.3984 87.6941 62.6633 87.8865 62.9928C88.0789 63.3222 88.1751 63.678 88.1751 64.0602C88.1751 64.5162 88.0551 64.9049 87.8153 65.2265C87.5781 65.548 87.2552 65.7707 86.8467 65.8946V65.9579C87.358 66.0422 87.7573 66.2596 88.0446 66.6102C88.3319 66.9581 88.4755 67.389 88.4755 67.903C88.4755 68.3431 88.3556 68.7385 88.1158 69.089C87.8786 69.4369 87.5544 69.711 87.1432 69.9113C86.7321 70.1116 86.2642 70.2118 85.7397 70.2118Z" fill="#8B8F96"/>
<rect x="316.878" y="24.369" width="164.752" height="24.5695" rx="2.58325" fill="#181A1C"/>
<rect x="316.878" y="24.369" width="164.752" height="24.5695" rx="2.58325" stroke="#282A2C" stroke-width="0.738072"/>
<rect x="319.292" y="26.7832" width="22.8783" height="19.7411" rx="2.95229" fill="#41B06E"/>
<path d="M328.686 39.7354H327.573V33.7681L326.371 35.0261L325.714 34.347L327.706 32.3097H328.686V39.7354ZM334.145 38.9672C333.938 39.2418 333.678 39.4607 333.366 39.624C333.062 39.7873 332.735 39.8689 332.386 39.8689C331.919 39.8689 331.503 39.7576 331.14 39.535C330.776 39.3049 330.49 38.9783 330.282 38.5553C330.082 38.1322 329.982 37.6312 329.982 37.0523C329.982 36.4883 330.082 35.9947 330.282 35.5716C330.49 35.1412 330.776 34.8109 331.14 34.5808C331.503 34.3433 331.919 34.2246 332.386 34.2246C332.728 34.2246 333.051 34.3062 333.355 34.4695C333.667 34.6253 333.93 34.848 334.145 35.1375V32.3097H335.147V39.7354H334.145V38.9672ZM334.145 35.9056C334.004 35.683 333.793 35.4974 333.511 35.349C333.236 35.1931 332.951 35.1152 332.654 35.1152C332.156 35.1152 331.759 35.297 331.462 35.6607C331.173 36.017 331.028 36.4808 331.028 37.0523C331.028 37.6164 331.173 38.0803 331.462 38.4439C331.759 38.8002 332.156 38.9783 332.654 38.9783C332.951 38.9783 333.236 38.9041 333.511 38.7557C333.793 38.6072 334.004 38.4217 334.145 38.199V35.9056Z" fill="#1F1F21"/>
<path d="M349.312 41.1538L352.934 33.9902V33.9269H348.759V33.0571H353.946V33.9743L350.34 41.1538H349.312ZM357.163 41.2803C356.657 41.2803 356.21 41.1525 355.823 40.8968C355.435 40.6385 355.132 40.2748 354.913 39.8057C354.694 39.3339 354.585 38.7765 354.585 38.1334C354.585 37.4955 354.694 36.9421 354.913 36.4729C355.132 36.0038 355.436 35.6414 355.826 35.3857C356.217 35.1301 356.667 35.0022 357.179 35.0022C357.574 35.0022 357.886 35.0681 358.116 35.1999C358.347 35.3291 358.524 35.4767 358.645 35.6427C358.769 35.8061 358.865 35.9405 358.934 36.0459H359.013V33.0571H359.946V41.1538H359.045V40.2208H358.934C358.865 40.3315 358.768 40.4712 358.641 40.6399C358.515 40.8059 358.334 40.9548 358.1 41.0866C357.865 41.2157 357.553 41.2803 357.163 41.2803ZM357.289 40.4422C357.663 40.4422 357.98 40.3447 358.238 40.1496C358.496 39.952 358.693 39.6792 358.827 39.3313C358.962 38.9807 359.029 38.5762 359.029 38.1176C359.029 37.6642 358.963 37.2676 358.831 36.9276C358.699 36.5849 358.504 36.3187 358.246 36.129C357.988 35.9366 357.669 35.8404 357.289 35.8404C356.894 35.8404 356.564 35.9418 356.301 36.1448C356.04 36.3451 355.844 36.6179 355.712 36.9631C355.583 37.3058 355.518 37.6906 355.518 38.1176C355.518 38.5498 355.584 38.9425 355.716 39.2957C355.85 39.6462 356.048 39.9256 356.309 40.1338C356.572 40.3394 356.899 40.4422 357.289 40.4422Z" fill="#888890"/>
<path d="M376.644 33.0571V41.1538H375.663V34.085H375.616L373.639 35.3976V34.4013L375.663 33.0571H376.644ZM378.988 41.1538V35.0813H379.89V36.0301H379.969C380.095 35.706 380.299 35.4542 380.581 35.275C380.863 35.0932 381.202 35.0022 381.597 35.0022C381.998 35.0022 382.332 35.0932 382.598 35.275C382.867 35.4542 383.076 35.706 383.226 36.0301H383.29C383.445 35.7165 383.678 35.4674 383.989 35.2829C384.3 35.0958 384.673 35.0022 385.108 35.0022C385.651 35.0022 386.095 35.1722 386.44 35.5122C386.786 35.8496 386.958 36.3754 386.958 37.0897V41.1538H386.025V37.0897C386.025 36.6416 385.903 36.3214 385.658 36.129C385.413 35.9366 385.124 35.8404 384.792 35.8404C384.365 35.8404 384.034 35.9695 383.8 36.2278C383.565 36.4835 383.448 36.8076 383.448 37.2004V41.1538H382.499V36.9948C382.499 36.6495 382.387 36.3715 382.163 36.1606C381.939 35.9471 381.65 35.8404 381.297 35.8404C381.055 35.8404 380.828 35.9049 380.617 36.0341C380.409 36.1632 380.24 36.3425 380.111 36.5718C379.984 36.7984 379.921 37.0607 379.921 37.3585V41.1538H378.988Z" fill="#888890"/>
<path d="M403.409 41.2645C403.077 41.2592 402.745 41.196 402.412 41.0747C402.08 40.9535 401.777 40.7492 401.503 40.462C401.229 40.172 401.009 39.7806 400.843 39.2878C400.677 38.7923 400.594 38.1703 400.594 37.4218C400.594 36.7049 400.661 36.0697 400.795 35.5162C400.93 34.9601 401.125 34.4922 401.381 34.1127C401.636 33.7305 401.945 33.4406 402.306 33.243C402.669 33.0453 403.079 32.9464 403.535 32.9464C403.989 32.9464 404.392 33.0374 404.745 33.2192C405.101 33.3985 405.391 33.6488 405.615 33.9704C405.839 34.2919 405.984 34.6622 406.05 35.0813H405.085C404.995 34.7176 404.821 34.4158 404.563 34.176C404.305 33.9361 403.962 33.8162 403.535 33.8162C402.908 33.8162 402.414 34.089 402.053 34.6346C401.694 35.1801 401.514 35.9458 401.511 36.9315H401.574C401.722 36.7075 401.897 36.5164 402.1 36.3583C402.306 36.1975 402.532 36.0736 402.78 35.9866C403.028 35.8997 403.29 35.8562 403.567 35.8562C404.031 35.8562 404.455 35.9722 404.84 36.2041C405.225 36.4334 405.533 36.751 405.765 37.1569C405.997 37.5601 406.113 38.0227 406.113 38.5445C406.113 39.0453 406.001 39.5039 405.777 39.9203C405.553 40.3341 405.238 40.6636 404.832 40.9087C404.429 41.1512 403.954 41.2698 403.409 41.2645ZM403.409 40.3947C403.741 40.3947 404.039 40.3117 404.302 40.1457C404.568 39.9796 404.778 39.7569 404.931 39.4775C405.086 39.1982 405.164 38.8872 405.164 38.5445C405.164 38.2098 405.089 37.9054 404.939 37.6313C404.791 37.3545 404.587 37.1345 404.326 36.9711C404.068 36.8076 403.772 36.7259 403.44 36.7259C403.19 36.7259 402.957 36.776 402.741 36.8762C402.524 36.9737 402.335 37.1081 402.171 37.2794C402.01 37.4507 401.884 37.6471 401.792 37.8685C401.699 38.0872 401.653 38.3179 401.653 38.5603C401.653 38.8819 401.728 39.1824 401.879 39.4617C402.032 39.7411 402.24 39.9665 402.503 40.1378C402.77 40.3091 403.071 40.3947 403.409 40.3947ZM407.683 41.1538V35.0813H408.585V36.0301H408.664C408.79 35.706 408.995 35.4542 409.277 35.275C409.559 35.0932 409.897 35.0022 410.293 35.0022C410.693 35.0022 411.027 35.0932 411.293 35.275C411.562 35.4542 411.771 35.706 411.921 36.0301H411.985C412.14 35.7165 412.373 35.4674 412.684 35.2829C412.995 35.0958 413.368 35.0022 413.803 35.0022C414.346 35.0022 414.79 35.1722 415.136 35.5122C415.481 35.8496 415.654 36.3754 415.654 37.0897V41.1538H414.721V37.0897C414.721 36.6416 414.598 36.3214 414.353 36.129C414.108 35.9366 413.819 35.8404 413.487 35.8404C413.06 35.8404 412.729 35.9695 412.495 36.2278C412.26 36.4835 412.143 36.8076 412.143 37.2004V41.1538H411.194V36.9948C411.194 36.6495 411.082 36.3715 410.858 36.1606C410.634 35.9471 410.345 35.8404 409.992 35.8404C409.75 35.8404 409.523 35.9049 409.312 36.0341C409.104 36.1632 408.935 36.3425 408.806 36.5718C408.68 36.7984 408.616 37.0607 408.616 37.3585V41.1538H407.683Z" fill="#888890"/>
<path d="M432.501 33.0571V41.1538H431.521V34.085H431.474L429.497 35.3976V34.4013L431.521 33.0571H432.501ZM435.447 43.431C435.289 43.431 435.148 43.4178 435.024 43.3915C434.9 43.3677 434.814 43.344 434.767 43.3203L435.004 42.498C435.231 42.556 435.431 42.5771 435.605 42.5612C435.779 42.5454 435.933 42.4677 436.068 42.328C436.205 42.1909 436.33 41.9682 436.443 41.6599L436.617 41.1854L434.371 35.0813H435.384L437.06 39.9203H437.123L438.799 35.0813H439.811L437.234 42.0394C437.118 42.353 436.974 42.6126 436.803 42.8182C436.632 43.0264 436.433 43.1806 436.206 43.2808C435.982 43.3809 435.729 43.431 435.447 43.431Z" fill="#888890"/>
<path d="M454.101 41.1538H453.073L456.046 33.0571H457.058L460.031 41.1538H459.003L456.583 34.3381H456.52L454.101 41.1538ZM454.48 37.991H458.623V38.8608H454.48V37.991ZM461.292 41.1538V33.0571H462.272V40.284H466.036V41.1538H461.292ZM467.554 41.1538V33.0571H468.535V40.284H472.298V41.1538H467.554Z" fill="#888890"/>
</svg>
